<svg viewBox="0 0 380 254" fill="none" xmlns="http://www.w3.org/2000/svg"><g clip-path="url(#clip0)"><path d="M432.35 0H-53v254h485.35V0z" fill="#01B6D1"/><path d="M2.65 45.309c-13.267 0-24.47 8.898-27.949 21.072h55.896C27.12 54.207 15.956 45.309 2.65 45.309zM78.89 45.309c-13.267 0-24.47 8.898-27.949 21.072h55.897c-3.479-12.174-14.682-21.072-27.948-21.072z" fill="#F7F8F8"/><path d="M42.57 36.29c-18.97 0-34.946 12.7-39.92 30.09h79.799c-4.935-17.39-20.91-30.09-39.88-30.09z" fill="#F7F8F8"/><path d="M83.218 75.926H74.44v120.933h8.777V75.926z" fill="#6DB344"/><path d="M77.15 67.553l-2.709 8.373h8.777l-2.71-8.373H77.15z" fill="#F7F8F8"/><path d="M78.85 62.295l-1.7 5.258h3.358l-1.658-5.258z" fill="#6DB344"/><path d="M119.982 70.466h-8.776v120.933h8.776V70.466z" fill="#0181A1"/><path d="M113.916 62.053l-2.71 8.413h8.776l-2.709-8.413h-3.357z" fill="#F7F8F8"/><path d="M115.574 56.795l-1.658 5.258h3.357l-1.699-5.258zM96.363 84.217h-8.777V205.15h8.777V84.217z" fill="#01496E"/><path d="M90.296 75.804l-2.71 8.413h8.777l-2.67-8.413h-3.397z" fill="#F7F8F8"/><path d="M91.995 70.546l-1.699 5.258h3.397l-1.698-5.258z" fill="#BED21E"/><path d="M28.413 178.052c-11.567 0-21.355 7.765-24.348 18.362h48.737c-3.074-10.597-12.822-18.362-24.389-18.362zM94.866 178.052c-11.568 0-21.356 7.765-24.349 18.362h48.737c-3.033-10.597-12.78-18.362-24.388-18.362z" fill="#BBECF6"/><path d="M63.196 170.205c-16.542 0-30.496 11.082-34.824 26.25H97.98c-4.288-15.168-18.241-26.25-34.784-26.25z" fill="#BBECF6"/><path d="M259.44 171.216c-16.138 0-29.728 10.799-33.934 25.603h67.908c-4.247-14.804-17.877-25.603-33.974-25.603zM352.061 171.216c-16.138 0-29.728 10.799-33.934 25.603h67.908c-4.246-14.804-17.877-25.603-33.974-25.603z" fill="#7DE3F4"/><path d="M307.934 160.255c-23.054 0-42.468 15.451-48.494 36.563h96.989c-6.026-21.112-25.481-36.563-48.495-36.563z" fill="#7DE3F4"/><path d="M290.786 26.137c-5.218 0-9.586 3.478-10.961 8.25h21.922c-1.375-4.772-5.744-8.25-10.961-8.25zM320.676 26.137c-5.218 0-9.586 3.478-10.961 8.25h21.921c-1.334-4.772-5.743-8.25-10.96-8.25z" fill="#F7F8F8"/><path d="M306.438 22.578c-7.442 0-13.711 4.974-15.652 11.81h31.305c-1.941-6.795-8.21-11.81-15.653-11.81zM37.797 119.527c-5.218 0-9.586 3.478-10.961 8.251h21.922c-1.335-4.732-5.744-8.251-10.961-8.251zM67.727 119.527c-5.218 0-9.586 3.478-10.961 8.251h21.921c-1.375-4.732-5.743-8.251-10.96-8.251z" fill="#F7F8F8"/><path d="M53.49 116.008c-7.442 0-13.712 4.975-15.653 11.81h31.305c-1.941-6.835-8.21-11.81-15.652-11.81z" fill="#F7F8F8"/><path d="M307.409 80.294c-9.909 0-18.281 6.633-20.87 15.733h41.74c-2.588-9.1-10.961-15.733-20.87-15.733zM364.316 80.294c-9.909 0-18.281 6.633-20.87 15.733h41.741c-2.589-9.1-10.921-15.733-20.871-15.733z" fill="#BBECF6"/><path d="M337.218 73.54c-14.156 0-26.128 9.504-29.809 22.487h59.617c-3.721-12.983-15.652-22.487-29.808-22.487z" fill="#BBECF6"/><path d="M298.188 211.298H72.176c-4.166 0-7.563-3.397-7.563-7.563s3.397-7.564 7.563-7.564h225.971c4.166 0 7.564 3.398 7.564 7.564.04 4.206-3.357 7.563-7.523 7.563zM309.714 93.682c-5.218 0-9.586 3.478-10.961 8.251h21.922c-1.335-4.773-5.744-8.251-10.961-8.251zM339.644 93.682c-5.218 0-9.586 3.478-10.961 8.251h21.922c-1.375-4.773-5.744-8.251-10.961-8.251z" fill="#006184"/><path d="M325.407 90.123c-7.442 0-13.711 4.974-15.653 11.81h31.305c-1.941-6.836-8.25-11.81-15.652-11.81zM-12.033 39.04c-6.714 0-12.376 4.529-14.156 10.677H2.123c-1.78-6.148-7.442-10.678-14.156-10.678zM26.593 39.04c-6.714 0-12.376 4.529-14.156 10.677H40.75c-1.78-6.148-7.442-10.678-14.156-10.678z" fill="#006184"/><path d="M8.19 34.469c-9.586 0-17.715 6.43-20.223 15.248h40.446C25.905 40.9 17.776 34.469 8.19 34.469z" fill="#006184"/><path d="M282.606 147.717c0 51.245-41.538 92.783-92.783 92.783-50.476 0-91.57-40.324-92.783-90.518-.04-.768-.04-1.496-.04-2.265 0-20.223 6.471-38.909 17.432-54.157 16.906-23.418 44.369-38.666 75.391-38.666 26.694 0 50.76 11.284 67.666 29.323 13.671 14.601 22.731 33.611 24.712 54.643.283 2.912.405 5.864.405 8.857z" fill="#DAEAB5"/><path d="M199.004 126.685l-3.438 5.016-6.633 5.702s-.971 9.586-1.861 10.274c-.89.687 3.438 5.703 3.438 5.703l2.427 6.188 7.401.93 8.696-2.305 9.586.687 3.883 1.618-3.64 6.876 6.188 9.383-3.438 10.274 2.508 9.585 3.195 8.453s-1.375 4.126 0 4.126h6.876l13.468-10.071v-11.446s8.008-9.586 8.453-10.274c.445-.687 3.196-10.96 3.196-10.96l7.32-8.454-3.438-5.5-5.703-1.618-9.343-13.469-3.195-8.008-8.696-2.75-6.633 3.64-3.64-3.64-3.64-3.438-1.82-2.953-10.273 3.196-6.876-.445-4.368 3.68zM131.095 156.373l-6.188 8.331 3.074 15.208 6.067 4.813 8.211 6.633 3.195 11.891 9.828 14.156s4.126 9.829 5.258 10.274c1.133.445 6.39 5.015 6.39 5.015l9.141-.93v-2.953s-7.078-7.321-7.523-8.21c-.445-.931-.242-10.274 0-11.447.243-1.132 5.946-10.96 5.946-10.96l-1.618-7.078s5.015-6.876 5.015-8.009c0-1.132-1.132-6.188-1.132-6.188l-1.375-8.615-11.649-3.6-8.696 1.012-3.64-5.501-9.585-1.133-10.719-2.709z" fill="#BED21E"/><path d="M270.512 134.208l-3.882 1.821 6.633 6.39-6.633 6.188h-5.946l-4.813-9.828-6.188-5.501-4.813-3.883 7.765-7.078-7.765-2.062-3.883-2.993s-5.946 0-8.453 1.617c-2.508 1.618-5.784-2.507-5.784-2.507l-7.685-3.438-4.125.93-5.258 5.258h-6.633l-2.751 3.195-5.864-4.327 5.015-5.016h8.211l1.617-2.507-2.952-.931-.243-2.507 3.883-1.375-4.125-3.64-3.196.93h-4.327v-2.265l6.875-4.126 6.189 6.391h2.265l3.195-2.953 3.195.93 5.703 2.063 5.501-1.132s6.633-6.189 6.633-6.876c0-.688-3.196-2.305-3.196-2.305h-3.882c-.688 0 1.82-5.703 1.82-5.703l-5.784 2.952s.526 4.126 0 5.016c-.526.93-3.114 2.507-3.114 2.507s-5.258-3.883-5.946-3.195c-.688.688-3.195 0-3.195 0l-2.063-3.883 5.501-1.375 2.75-4.125 9.828-6.189s4.571.688 6.189 1.618c1.617.93 4.813 1.375 4.813 1.375l-3.438 3.68 3.195 3.641h5.703l9.141-3.64 1.375-1.092c13.67 14.6 22.73 33.61 24.712 54.642l-2.75-.971-9.02-3.721zM146.667 116.372c0 1.375-3.68 5.945-3.68 5.945l-5.703 2.75-6.633 6.391-1.133 11.203-1.618 5.946h-5.015l-2.508-4.571-4.813-1.375-4.57 4.328.687 4.57s5.703 3.883 5.946 4.813c.243.931 1.375 3.681 1.375 3.681l5.946 2.953v3.195l-12.134-6.391-12.781-3.438-2.953-6.43c-.04-.769-.04-1.497-.04-2.265 0-20.223 6.471-38.909 17.432-54.157l.647-.445 5.38 4.327v4.328l-3.074 2.75-5.501 1.821v2.062l5.946-.687 4.57-2.265 4.813-3.64h3.883l-3.195 2.952-5.501 5.946-3.64 5.015 1.699 3.64 3.316-1.618.243 2.508 2.265 2.952 3.195-6.188 1.375-6.188 5.016-2.953 2.952 1.376h5.703c.04.08 2.103 5.824 2.103 7.159zM141.854 86.887h4.813v4.368l2.508 1.82.89 10.758h4.368l3.195-6.43 6.835-8.21 5.056-3.439 8.453-6.148 1.133-8.008 5.5-6.39-5.055-1.86-4.328 1.617-12.012 5.703-6.957 2.063-7.564 3.882-12.336 3.438-6.147 3.56v5.338l-5.258 4.126 6.148.93 4.125-3.438 3.64-4.125 2.993.445z" fill="#BED21E"/><path d="M127.343 194.877c.203 3.115-.97 5.946-2.993 7.928a10.176 10.176 0 01-7.239 2.993h-54.44a1.45 1.45 0 01-1.456-1.456 1.45 1.45 0 011.455-1.456h47.444c3.721 0 7.037-2.67 7.482-6.35.566-4.449-2.912-8.251-7.24-8.251H62.671a1.45 1.45 0 01-1.456-1.456 1.45 1.45 0 011.455-1.456h54.198c5.42 0 10.111 4.085 10.475 9.504z" fill="#01496E"/><path d="M124.472 195.605v.526c0 .202-.041.405-.081.566a5.29 5.29 0 01-.243 1.092c-.081.203-.121.405-.202.567-.162.364-.324.728-.566 1.092-.122.202-.243.404-.405.566-.283.404-.647.768-1.011 1.092-.243.202-.485.404-.728.566a7.319 7.319 0 01-4.044 1.214H64.127v-14.601h53.065c1.496 0 2.871.445 4.044 1.213.283.162.526.364.769.566.364.324.728.688 1.011 1.092.162.203.283.364.404.567.202.323.405.687.566 1.092.081.202.162.364.203.566.121.364.202.728.242 1.092.041.202.041.364.081.566-.04.202-.04.364-.04.566z" fill="#F7F8F8"/><path d="M121.964 190.105H64.126v-.566h57.07c.283.161.525.323.768.566zM123.38 191.722H64.126v-.566h58.849c.121.202.283.405.405.566zM124.108 193.381H64.126v-.567h59.82c.04.203.121.364.162.567zM124.431 195.039H64.126v-.566h60.265c0 .202.04.364.04.566zM124.431 196.131c0 .203-.04.405-.081.567H64.086v-.567h60.345zM124.148 197.79c-.081.202-.121.404-.202.566h-59.82v-.566h60.022zM123.38 199.448c-.122.202-.243.404-.405.566H64.126v-.566h59.254zM121.964 201.106c-.243.202-.485.404-.728.566h-57.11v-.566h57.838z" fill="#BBECF6"/><path d="M195.94 194.877c.202 3.115-.971 5.946-2.993 7.928a10.18 10.18 0 01-7.24 2.993h-54.48a1.45 1.45 0 01-1.456-1.456 1.45 1.45 0 011.456-1.456h47.443c3.721 0 7.037-2.67 7.482-6.35.566-4.449-2.912-8.251-7.24-8.251h-47.685a1.45 1.45 0 01-1.456-1.456 1.45 1.45 0 011.456-1.456h54.197c5.42 0 10.152 4.085 10.516 9.504z" fill="#6DB344"/><path d="M193.028 195.605v.526c0 .202-.041.405-.081.566-.04.364-.121.728-.243 1.092-.081.203-.121.405-.202.567-.162.364-.324.728-.566 1.092-.122.202-.243.404-.405.566-.283.404-.647.768-1.011 1.092a8.807 8.807 0 01-.728.566 7.319 7.319 0 01-4.044 1.214h-53.065v-14.601h53.065c1.496 0 2.871.445 4.044 1.213.283.162.526.364.769.566.364.324.728.688 1.011 1.092.162.203.283.364.404.567.202.323.405.687.567 1.092.08.202.161.364.202.566.121.364.202.728.242 1.092.041.202.041.364.081.566-.04.202-.04.364-.04.566z" fill="#F7F8F8"/><path d="M190.52 190.105h-57.837v-.566h57.069c.283.161.526.323.768.566zM191.936 191.722h-59.253v-.566h58.848c.162.202.283.405.405.566zM192.704 193.381h-60.021v-.567h59.819c.081.203.121.364.202.567zM193.028 195.039h-60.345v-.566h60.264c.04.202.04.364.081.566zM193.028 196.131c0 .203-.041.405-.081.567h-60.264v-.567h60.345zM192.704 197.79c-.081.202-.121.404-.202.566h-59.819v-.566h60.021zM191.936 199.448c-.122.202-.243.404-.405.566h-58.848v-.566h59.253zM190.52 201.106a8.807 8.807 0 01-.728.566h-57.109v-.566h57.837z" fill="#BBECF6"/><path d="M262.069 194.877c.202 3.115-.97 5.946-2.993 7.928a10.177 10.177 0 01-7.24 2.993h-54.48a1.45 1.45 0 01-1.456-1.456 1.45 1.45 0 011.456-1.456h47.443c3.721 0 7.037-2.67 7.482-6.35.567-4.449-2.912-8.251-7.239-8.251h-47.686a1.45 1.45 0 01-1.456-1.456 1.45 1.45 0 011.456-1.456h54.197c5.42 0 10.152 4.085 10.516 9.504z" fill="#6DB344"/><path d="M259.198 195.605v.526c0 .202-.041.405-.081.566a5.356 5.356 0 01-.243 1.092c-.081.203-.121.405-.202.567-.162.364-.324.728-.566 1.092-.122.202-.243.404-.405.566-.283.404-.647.768-1.011 1.092-.243.202-.485.404-.728.566a7.32 7.32 0 01-4.045 1.214h-53.105v-14.601h53.065a7.33 7.33 0 014.045 1.213c.283.162.525.364.768.566.364.324.728.688 1.011 1.092.162.203.283.364.405.567.202.323.404.687.566 1.092.081.202.162.364.202.566.121.364.202.728.243 1.092.04.202.04.364.081.566-.041.202 0 .364 0 .566z" fill="#F7F8F8"/><path d="M256.65 190.105h-57.838v-.566h57.069c.283.161.566.323.769.566zM258.065 191.722h-59.253v-.566h58.849c.161.202.283.405.404.566zM258.834 193.381h-60.022v-.567h59.819c.081.203.162.364.203.567zM259.157 195.039h-60.345v-.566h60.264c.041.202.081.364.081.566zM259.157 196.131c0 .203-.04.405-.081.567h-60.264v-.567h60.345zM258.834 197.79c-.081.202-.122.404-.203.566h-59.819v-.566h60.022zM258.106 199.448c-.122.202-.243.404-.405.566h-58.889v-.566h59.294zM256.69 201.106c-.243.202-.485.404-.728.566h-57.15v-.566h57.878z" fill="#BBECF6"/><path d="M120.549 175.868c-.202-3.115.971-5.946 2.993-7.928a10.18 10.18 0 017.24-2.993h54.521a1.45 1.45 0 011.456 1.456 1.45 1.45 0 01-1.456 1.456H137.82c-3.721 0-7.038 2.67-7.483 6.35-.566 4.449 2.912 8.251 7.24 8.251h47.686a1.45 1.45 0 011.456 1.456 1.45 1.45 0 01-1.456 1.456h-54.198c-5.42 0-10.152-4.085-10.516-9.504z" fill="#01496E"/><path d="M123.462 175.14v-.526c0-.202.04-.405.08-.566.041-.364.122-.728.243-1.092.081-.203.121-.405.202-.567.162-.364.324-.728.567-1.092.121-.202.242-.404.404-.566.283-.404.647-.768 1.011-1.092.243-.202.486-.404.728-.566a7.32 7.32 0 014.045-1.214h53.065v14.601h-53.025a7.326 7.326 0 01-4.044-1.213c-.283-.162-.526-.364-.769-.566-.364-.324-.728-.688-1.011-1.092a4.842 4.842 0 01-.404-.567 6.81 6.81 0 01-.567-1.092c-.081-.202-.161-.364-.202-.566a5.356 5.356 0 01-.243-1.092c-.04-.202-.04-.364-.08-.566v-.566z" fill="#F7F8F8"/><path d="M125.969 180.64h57.838v.566h-57.069a3.402 3.402 0 01-.769-.566zM124.554 179.022h59.253v.567h-58.849c-.121-.203-.283-.405-.404-.567zM123.785 177.364h60.022v.566h-59.779c-.081-.202-.162-.404-.243-.566zM123.462 175.706h60.345v.566h-60.265c-.04-.202-.04-.364-.08-.566zM123.462 174.614c0-.203.04-.405.08-.567h60.265v.567h-60.345zM123.785 172.955c.081-.202.121-.404.202-.566h59.82v.566h-60.022zM124.554 171.297c.121-.202.242-.404.404-.566h58.849v.566h-59.253zM125.969 169.639c.243-.202.486-.404.728-.566h57.11v.566h-57.838z" fill="#BBECF6"/><path d="M269.349 174.452c.203 3.114-.97 5.946-2.993 7.927a10.172 10.172 0 01-7.239 2.993h-54.481a1.45 1.45 0 01-1.456-1.456 1.45 1.45 0 011.456-1.456h47.443c3.721 0 7.038-2.669 7.483-6.35.566-4.449-2.913-8.251-7.24-8.251h-47.686a1.45 1.45 0 01-1.456-1.456 1.45 1.45 0 011.456-1.456h54.198c5.419 0 10.151 4.085 10.515 9.505z" fill="#0181A1"/><path d="M266.478 175.14v.525c0 .203-.041.405-.081.567a5.29 5.29 0 01-.243 1.092c-.081.202-.121.404-.202.566-.162.364-.324.728-.566 1.092-.122.202-.243.404-.405.566-.283.405-.647.769-1.011 1.092-.243.202-.485.405-.728.566a7.319 7.319 0 01-4.044 1.214h-53.106v-14.601h53.065c1.497 0 2.872.445 4.045 1.213.283.162.525.364.768.566.364.324.728.688 1.011 1.093.162.202.283.364.405.566.202.323.404.687.566 1.092.081.202.162.364.202.566.122.364.202.728.243 1.092.04.202.04.364.081.566-.041.203 0 .405 0 .567z" fill="#F7F8F8"/><path d="M263.93 169.639h-57.838v-.566h57.069c.283.162.567.364.769.566zM265.345 171.297h-59.253v-.566h58.849c.162.162.283.364.404.566zM266.114 172.955h-60.022v-.566h59.819c.081.162.162.364.203.566zM266.437 174.614h-60.345v-.567h60.264c.041.162.081.364.081.567zM266.437 175.666c0 .202-.04.404-.081.566h-60.264v-.566h60.345zM266.114 177.324c-.081.202-.122.404-.203.566h-59.819v-.566h60.022zM265.386 178.982c-.122.202-.243.404-.405.566h-58.889v-.566h59.294zM263.97 180.64c-.243.202-.485.405-.728.566h-57.15v-.566h57.878z" fill="#BBECF6"/><path d="M190.682 155.402c-.203-3.115.97-5.946 2.993-7.928a10.177 10.177 0 017.24-2.993h54.52c.809 0 1.457.648 1.457 1.456 0 .809-.648 1.457-1.457 1.457h-47.523c-3.721 0-7.038 2.669-7.483 6.35-.566 4.449 2.912 8.25 7.24 8.25h47.686a1.45 1.45 0 011.456 1.457 1.45 1.45 0 01-1.456 1.456h-54.198c-5.379.04-10.111-4.085-10.475-9.505z" fill="#6DB344"/><path d="M193.553 154.714v-.525c0-.203.041-.405.081-.567a5.29 5.29 0 01.243-1.092c.081-.202.121-.404.202-.566.162-.364.324-.728.566-1.092.122-.202.243-.404.405-.566.283-.405.647-.769 1.011-1.092.243-.203.485-.405.728-.567a7.326 7.326 0 014.044-1.213h53.106v14.601h-53.065a7.327 7.327 0 01-4.045-1.213c-.283-.162-.525-.364-.768-.567-.364-.323-.728-.687-1.011-1.092a4.966 4.966 0 01-.405-.566 6.89 6.89 0 01-.566-1.092c-.081-.202-.162-.364-.202-.566a5.29 5.29 0 01-.243-1.092c-.04-.202-.04-.364-.081-.566.041-.203 0-.405 0-.567z" fill="#F7F8F8"/><path d="M196.102 160.215h57.837v.566H196.83a5.006 5.006 0 01-.728-.566zM194.686 158.557h59.253v.566H195.05a6.971 6.971 0 01-.364-.566zM193.918 156.898h60.021v.567H194.12a2.313 2.313 0 01-.202-.567zM193.594 155.24h60.345v.566h-60.264a2.353 2.353 0 01-.081-.566zM193.594 154.189c0-.202.04-.405.081-.566h60.264v.566h-60.345zM193.918 152.53c.08-.202.121-.404.202-.566h59.819v.566h-60.021zM194.646 150.872c.121-.202.242-.405.404-.566h58.889v.566h-59.293zM196.061 149.214c.243-.203.485-.405.728-.567h57.15v.567h-57.878z" fill="#BBECF6"/><path d="M270.158 133.561c.203 3.115-.97 5.946-2.993 7.928a10.176 10.176 0 01-7.239 2.993h-54.481a1.45 1.45 0 01-1.456-1.456 1.45 1.45 0 011.456-1.456h47.443c3.721 0 7.038-2.67 7.483-6.35.566-4.449-2.913-8.251-7.24-8.251h-47.686a1.45 1.45 0 01-1.456-1.456 1.45 1.45 0 011.456-1.456h54.198c5.419 0 10.151 4.085 10.515 9.504z" fill="#0181A1"/><path d="M267.287 134.249v.526c0 .202-.041.404-.081.566a5.29 5.29 0 01-.243 1.092c-.081.202-.121.404-.202.566-.162.364-.324.728-.566 1.092-.122.203-.243.405-.405.567-.283.404-.647.768-1.011 1.092-.243.202-.485.404-.728.566a7.326 7.326 0 01-4.044 1.213h-53.106v-14.601h53.065a7.32 7.32 0 014.045 1.214c.283.161.525.364.768.566.364.323.728.687 1.011 1.092.162.202.283.364.405.566.202.324.404.688.566 1.092.081.202.162.364.202.566.122.364.202.728.243 1.092.04.203.04.364.081.567-.041.202 0 .404 0 .566z" fill="#F7F8F8"/><path d="M264.739 128.748h-57.838v-.566h57.069c.283.162.566.364.769.566zM266.154 130.407h-59.253v-.567h58.849c.162.162.283.364.404.567zM266.923 132.065h-60.022v-.566h59.82c.08.161.161.364.202.566zM267.246 133.723h-60.345v-.566h60.264c.041.162.081.364.081.566zM267.246 134.815c0 .203-.04.405-.081.567h-60.264v-.567h60.345zM266.923 136.433c-.081.202-.122.405-.202.566h-59.82v-.566h60.022zM266.195 138.091c-.122.203-.243.405-.405.567h-58.889v-.567h59.294zM264.779 139.75c-.243.202-.485.404-.728.566h-57.15v-.566h57.878z" fill="#BBECF6"/><path d="M113.783 127.103c-1.446-1.173-4.018-1.415-5.584-.283-1.567 1.133-1.487 3.519-.402 5.015 1.085 1.497 4.379 2.427 6.87.89 1.647-1.011.964-4.125-.884-5.622z" fill="#3B3E54"/><path d="M114.948 125.808c-1.085-.889-2.933-1.132-4.058-.283-1.125.809-1.045 2.548-.201 3.681.803 1.132 3.696 1.577 4.821.768 1.085-.849.763-3.073-.562-4.166z" fill="#3B3E54"/><path d="M79.415 179.103c-.04-.04-.04-.08-.08-.121-.203-.323-.081-.768.242-.93l4.287-2.508c.324-.202.769-.081.93.243.203.323.082.768-.242.93l-4.287 2.508c-.243.202-.607.121-.85-.122z" fill="#1A1C2E"/><path d="M80.588 177.404s-1.658-.768-1.78-.364c-.12.405-1.577 6.391-1.293 6.472.93.323 2.83-4.409 2.83-4.894 0-.566.486-1.133.243-1.214z" fill="#01B6D1"/><path d="M133.33 129.436s3.114-1.739 3.923-1.375c.809.323-1.941 2.305-4.085 2.224l.162-.849z" fill="#1A1C2E"/><path d="M133.33 129.153c.404.404.809.809 1.173 1.213-6.229 6.35-11.446 7.483-19.293 3.762-1.213-.567-1.132-1.052-.566-1.982-.121-.162-.121-.162 0 0 .566-.971.93-1.011 2.144-.445 7.967 3.761 9.423 2.588 16.542-2.548z" fill="#01B6D1"/><path d="M131.429 160.013h-.122c-.364-.04-.687-.364-.647-.728l.283-4.934c.041-.364.364-.688.728-.647.365.04.688.364.648.728l-.283 4.934c-.041.324-.284.607-.607.647z" fill="#1A1C2E"/><path d="M109.184 151.034c1.254 1.537 2.548 2.993 3.963 4.368 11.083-9.707 17.716-14.479 17.311 2.063l2.306-.081c1.213-18.888-9.748-16.906-23.58-6.35z" fill="#006184"/><path d="M82.853 178.376a19.666 19.666 0 01-1.334-1.861c10.596-5.541 23.58-16.906 29.808-27.382a177.027 177.027 0 014.975 3.276c-7.604 9.505-23.256 19.778-33.449 25.967z" fill="#006184"/><path d="M130.418 158.881s-.809 1.617-.405 1.779c.405.162 6.35 1.739 6.431 1.456.324-.93-4.327-2.912-4.853-2.952-.486-.041-1.052-.526-1.173-.283z" fill="#01B6D1"/><path d="M109.022 151.155c1.011-.162 1.982.728 4.327 1.173 1.618.283 2.953-1.82 3.883-1.496-1.237-5.937-1.445-8.532-1.233-10.832.135-1.46.623-2.073 1-3 .486-1.173.071-3.722-.737-4.733l-.324-.364c-1.456-1.78-4.287-1.416-5.218.688-.323.687-.606 1.537-.889 2.467-1.295 4.489-1.82 9.545-.809 16.097z" fill="#7DE3F4"/><path d="M113.067 127.98c1.011 1.82 3.114 2.548 4.246 1.941 1.092-.647.809-2.386-.202-4.206-1.011-1.82-2.427-2.225-3.559-1.578-1.133.648-1.537 2.023-.485 3.843z" fill="#1A1C2E"/><path d="M112.581 129.031c.243.405.971.728 1.254.567.324-.162.202-.567-.04-.971-.243-.404-.728-.688-1.012-.485-.283.161-.444.485-.202.889z" fill="#1A1C2E"/><path d="M112.136 126.969s-.283-1.375.405-2.306c.687-.93 2.467-1.86 3.761-.445 0 0 .809 1.052-.566 1.942-1.375.89-1.497 0-1.861 1.051-.364 1.052-1.253.85-1.334 1.052l-.405-1.294z" fill="#3B3E54"/><path d="M114.078 127.616l2.184.283c-.041.283-.445 3.114-.809 4.125-.162.284-.728.324-1.254.041-.485-.243-.769-.647-.728-.93.202-.607.485-2.508.607-3.519zM104.573 152.167s-1.739 3.316-1.335 4.166c.364.849 2.387-2.104 2.265-4.328l-.93.162z" fill="#1A1C2E"/><path d="M105.827 152.53c-.566.122-1.133.243-1.659.364-1.577-11.446-2.588-12.295 6.148-20.223 1.335-1.213 1.416-.728 2.103.243.243 0 .243-.04 0 0 .728.971.769 1.173-.606 2.225-8.898 6.875-6.35 6.835-5.986 17.391z" fill="#01B6D1"/><path d="M145.611 103.022l-3.015-1.273-14.937 35.372 3.015 1.273 14.937-35.372z" fill="#00183A"/><path d="M142.05 113.988l-4.823-2.037-10.846 25.686 4.823 2.036 10.846-25.685z" fill="#3FCDE3"/><path d="M159.665 65.533c-10.472-4.407-22.515.48-26.966 10.952-4.407 10.472.48 22.516 10.952 26.966 10.473 4.407 22.516-.48 26.966-10.952 4.408-10.516-.479-22.56-10.952-26.966zm-15.272 36.173c-9.512-4.014-13.963-15.01-9.949-24.523 4.015-9.512 15.011-13.963 24.523-9.949 9.512 4.015 13.963 15.01 9.949 24.523-4.015 9.513-15.011 13.963-24.523 9.949z" fill="#00183A"/><path opacity=".61" d="M151.68 103.19c10.338 0 18.719-8.381 18.719-18.72 0-10.338-8.381-18.719-18.719-18.719-10.338 0-18.719 8.38-18.719 18.72 0 10.338 8.381 18.719 18.719 18.719z" fill="#F7F8F8"/><path d="M287.55 111.842a.897.897 0 00-.89.89v8.695h-12.74v-8.695a.898.898 0 00-.89-.89.897.897 0 00-.89.89v92.418c0 .486.404.89.89.89.485 0 .89-.404.89-.89v-7.684h12.74v7.684c0 .486.404.89.89.89.485 0 .89-.404.89-.89v-92.418a.872.872 0 00-.89-.89zm-13.63 46.674v-7.361h12.74v7.321h-12.74v.04zm12.74 1.901v7.321h-12.74v-7.321h12.74zm-12.74-11.163v-7.32h12.74v7.32h-12.74zm0 20.466h12.74v7.321h-12.74v-7.321zm12.74-29.768h-12.74v-7.321h12.74v7.321zm-12.74 39.03h12.74v7.321h-12.74v-7.321zm12.74-55.613v7.321h-12.74v-7.321h12.74zm-12.74 72.196v-7.321h12.74v7.321h-12.74z" fill="#01496E"/><path d="M303.728 189.255c.041 0 .081-.04.122-.04.323-.203.445-.607.242-.931l-2.386-4.166c-.202-.323-.607-.445-.93-.242-.324.202-.445.606-.243.93l2.387 4.166c.202.243.525.364.808.283z" fill="#F7F8F8"/><path d="M303.931 187.718s1.496.971 1.213 1.294c-.283.324-4.449 4.53-4.651 4.369-.728-.607 2.184-4.571 2.588-4.814.405-.323.647-1.011.85-.849z" fill="#6DB344"/><path d="M274.81 120.012s-.324-3.438-1.052-3.883c-.728-.485-.768 2.831.445 4.49l.607-.607z" fill="#F7F8F8"/><path d="M275.174 119.81c-.566.04-1.092.08-1.658.161 1.132 8.737 2.507 12.458 11.082 15.37 1.334.445 1.537-.041 1.658-1.092.243 0 .243 0 0 0 .121-1.052-.243-1.254-1.416-1.659-7.523-2.467-7.927-5.379-9.666-12.78z" fill="#3C8632"/><path d="M282.333 192.572c.04.04.081.04.121.04a.61.61 0 00.809-.445l1.375-4.61a.611.611 0 00-.445-.809.61.61 0 00-.809.445l-1.375 4.61a.678.678 0 00.324.769z" fill="#F7F8F8"/><path d="M282.252 189.417c.647.323 1.334.647 2.022.89 2.791-12.215 2.953-27.746 6.431-38.747-1.82-.486-3.681-.971-5.501-1.456-2.952 12.902 1.537 24.348-2.952 39.313z" fill="#6DB344"/><path d="M301.747 187.435c.647-.323 1.294-.647 1.901-1.011-7.442-12.66-12.094-21.355-11.244-36.523-1.901-.242-3.802-.485-5.703-.687.04 14.52 7.401 26.451 15.046 38.221z" fill="#6DB344"/><path d="M286.499 127.333c.849-.728 2.386-.89 3.276-.243.93.647.849 2.063.162 2.993-.648.93-2.993 1.294-3.924.607-.89-.647-.647-2.427.486-3.357z" fill="#0D0F10"/><path d="M287.874 128.546c-.85 1.82-2.831 2.71-3.923 2.184-1.133-.526-.971-2.265-.122-4.085.85-1.82 2.184-2.346 3.317-1.82 1.132.526 1.577 1.86.728 3.721z" fill="#F7F8F8"/><path d="M288.399 129.557c-.202.445-.889.769-1.172.647-.324-.161-.243-.525-.041-.93.202-.445.647-.687.93-.566.324.081.486.404.283.849z" fill="#F7F8F8"/><path d="M288.683 127.494s.162-1.334-.566-2.184c-.728-.849-2.508-1.618-3.641-.162 0 0-.728 1.092.688 1.861 1.416.768 1.416-.121 1.861.89.444 1.011 1.294.687 1.375.93l.283-1.335z" fill="#0D0F10"/><path d="M284.8 153.703c1.577.041 2.831-.526 4.206-1.335 1.052-.606 2.387-.889 3.479-1.334.808-4.935-.324-12.984-2.225-16.138-1.699-2.791-1.699-2.306-2.305-2.589-.85-.364-1.861-.243-2.508.405l-.04.04c-.769.769-.809 2.386-.931 4.085-.121 1.699-.768 1.375.728 4.368.607 1.295-.445 9.95-.404 12.498z" fill="#7DE3F4"/><path d="M287.227 128.789l-2.104.202c.041.283.324 3.033.607 4.044.121.283.688.364 1.213.122.486-.203.809-.607.769-.89-.202-.647-.364-2.467-.485-3.478z" fill="#F7F8F8"/><path d="M283.384 191.439s1.011 1.457.647 1.659c-.364.202-5.864 2.467-5.986 2.224-.444-.849 3.762-3.397 4.247-3.478.445-.081.93-.647 1.092-.405z" fill="#6DB344"/><path d="M274.85 143.43s-2.346-2.75-3.235-2.75c-.89.04 1.011 2.912 3.073 3.599l.162-.849z" fill="#F7F8F8"/><path d="M274.769 143.026c-.323.525-.687.93-1.011 1.415 10.556 5.541 14.52 3.034 16.462-8.493.283-1.78-2.427-1.942-2.67.808-.809 9.505-4.449 10.152-12.781 6.27z" fill="#3C8632"/><path d="M260.168 123.328h.162a.705.705 0 00.566-.849l-1.011-5.015a.705.705 0 00-.85-.567.705.705 0 00-.566.85l1.011 5.015c.081.324.364.566.688.566z" fill="#F7F8F8"/><path d="M261.058 122.358s.445 1.82 0 1.901c-.445.04-6.795.242-6.836-.041-.121-1.011 5.056-1.941 5.582-1.82.526.081 1.213-.283 1.254-.04z" fill="#00183A"/><path d="M230.845 62.62s-2.023-3.075-2.953-3.156c-.93-.08.688 3.034 2.67 4.005l.283-.85z" fill="#F7F8F8"/><path d="M230.966 62.093c-.364.486-.728.93-1.052 1.375 7.119 5.784 12.619 6.35 20.264 1.618 1.173-.728 1.051-1.213.364-2.103.081-.202.081-.202 0 0-.688-.93-1.052-.93-2.265-.202-7.766 4.813-9.384 3.761-17.311-.688z" fill="#96C331"/><path d="M247.791 123.328h.162a.705.705 0 00.567-.849l-1.012-5.015a.705.705 0 00-.849-.567.705.705 0 00-.566.85l1.011 5.015c.04.324.364.566.687.566z" fill="#F7F8F8"/><path d="M246.214 120.376c.769 0 1.497-.081 2.265-.203-2.265-12.052-3.964-28.23 2.063-39.515-1.82-.89-3.681-1.78-5.501-2.63-4.408 9.83-.647 31.993 1.173 42.348z" fill="#00183A"/><path d="M258.712 120.052c.768-.242 1.496-.445 2.224-.768-5.662-11.042-9.787-28.393-8.776-40.931-2.063-.122-4.126-.162-6.148-.243.728 12.579 7.806 30.617 12.7 41.942z" fill="#01496E"/><path d="M248.681 122.358s.445 1.82 0 1.901c-.444.04-6.795.242-6.835-.041-.121-1.011 5.056-1.941 5.582-1.82.485.081 1.173-.283 1.253-.04z" fill="#00183A"/><path d="M252.443 81.871c-.971-.404-2.387-.768-4.894-.89-1.699-.08-2.993 0-4.045.122 4.328-9.303 5.096-13.914 4.692-16.543a3.582 3.582 0 011.375-3.397l.405-.324c1.9-1.456 4.651-.404 5.096 1.942.161.768.283 1.658.323 2.67.243 4.853-.404 10.07-2.952 16.42z" fill="#DAEAB5"/><path d="M253.211 56.876c-.809 1.981-2.871 3.033-4.085 2.548-1.213-.486-1.132-2.346-.323-4.328.808-1.982 2.224-2.589 3.438-2.103 1.213.485 1.779 1.9.97 3.883z" fill="#F7F8F8"/><path d="M253.858 57.927c-.202.445-.89.89-1.213.728-.324-.121-.283-.566-.081-1.011.202-.445.647-.768.97-.647.324.121.486.445.324.93z" fill="#F7F8F8"/><path d="M254.02 55.703s.081-1.456-.728-2.306c-.809-.849-2.75-1.577-3.923.04 0 0-.688 1.214.809 1.942 1.537.728 1.537-.202 2.063.85.525 1.051 1.415.687 1.496.93l.283-1.456z" fill="#0D0F10"/><path d="M252.888 56.957l-2.265-.203c-.041.324-.283 3.236-.162 4.369.081.323.647.485 1.254.364.566-.122.93-.486.971-.769-.081-.728.08-2.71.202-3.761z" fill="#F7F8F8"/><path d="M252.241 57.685c-.405-.283-.648.08-1.335.687-.688.607-2.103.728-2.589-1.051-.283-1.173-.566.89-.566.89.04.97.404 1.496 1.133 1.82 1.011.404 2.386.04 3.518-.93.122-.567.122-1.214-.161-1.416z" fill="#0D0F10"/><path d="M248.277 57.24s.04 0 .081.04c.445.121 2.386.769 2.669 1.456.364.769-1.011-.121-1.456-.606-.445-.445-.849-.324-1.254-.324-.364-.04-.647-.485-.04-.566z" fill="#0D0F10"/><path d="M269.551 59.343s.445-3.842 1.254-4.328c.809-.526.809 3.196-.606 5.016l-.648-.688z" fill="#F7F8F8"/><path d="M269.471 58.453c.566.243 1.132.445 1.617.647-3.761 9.181-9.585 14.278-17.472 5.824-1.214-1.294-.688-1.375.04-2.103.041-.283 0-.202 0 0 .728-.728 1.254-1.092 2.265.162 6.593 8.292 9.384 1.982 13.55-4.53z" fill="#96C331"/><path d="M228.458 42.599h-15.531V63.63h15.531V42.599z" fill="#F7F8F8"/><path d="M226.638 46.967h-11.931v.809h11.931v-.81zM223.605 44.216h-5.906v.81h5.906v-.81zM226.638 48.625h-11.931v.809h11.931v-.809zM226.638 50.283h-11.931v.81h11.931v-.81zM226.638 51.941h-11.931v.81h11.931v-.81zM226.638 53.6h-11.931v.809h11.931V53.6zM226.638 55.258h-11.931v.81h11.931v-.81zM226.638 56.916h-11.931v.81h11.931v-.81z" fill="#3FCDE3"/><path d="M235.334 177.324l-4.53-3.56-4.489 3.56v-26.452h9.019v26.452z" fill="#006184"/><path d="M160.064 181.287l-4.53-3.559-4.489 3.559v-12.255h9.019v12.255z" fill="#BED21E"/><path d="M166.981 164.179V120.74" stroke="#00183A" stroke-width="4" stroke-miterlimit="10" stroke-linecap="round" stroke-linejoin="round"/><path d="M152.218 125.795c-7.401 2.508-12.174 8.211-8.615 18.727 3.56 10.516 14.075 21.841 21.477 19.373.688-.242 1.335-.566 1.901-1.011v-33.853c-3.883-4.651-9.262-5.096-14.763-3.236z" fill="#96C331"/><path d="M181.744 125.796c-5.501-1.861-10.88-1.416-14.763 3.195v33.853a7.168 7.168 0 001.901 1.011c7.402 2.508 17.918-8.817 21.477-19.373 3.559-10.476-1.213-16.219-8.615-18.686z" fill="#6DB344"/><path d="M178.589 112.368a3.92 3.92 0 00-.647.202l-5.299 9.141 12.134-3.195 3.398-5.825c-2.872-.849-6.269-1.213-9.586-.323z" fill="#0181A1"/><path d="M165.646 123.49l6.957-1.82 5.298-9.141c-7.765 2.467-12.255 10.961-12.255 10.961zM188.134 112.61l-3.397 5.825 10.556-2.791c0 .04-2.993-1.901-7.159-3.034z" fill="#006184"/><path d="M165.646 123.49s6.35 4.085 13.388 3.802l-8.655-5.056-4.733 1.254z" fill="#0181A1"/><path d="M170.338 122.277l8.656 5.056a16.067 16.067 0 003.357-.486c2.062-.566 3.923-1.537 5.541-2.71l-7.685-4.489-9.869 2.629z" fill="#006184"/><path d="M195.293 115.684l-15.046 3.964 7.685 4.489c4.732-3.478 7.361-8.453 7.361-8.453z" fill="#0181A1"/><path d="M275.982 89.394a4.227 4.227 0 003.802-3.802c0-.04.04-.04.04 0a4.227 4.227 0 003.802 3.802c.041 0 .041.04 0 .04a4.227 4.227 0 00-3.802 3.803c0 .04-.04.04-.04 0a4.227 4.227 0 00-3.802-3.802c-.041 0-.041-.04 0-.04zM40.709 145.533a4.226 4.226 0 003.802-3.801c0-.041.04-.041.04 0a4.226 4.226 0 003.802 3.801c.04 0 .04.041 0 .041a4.226 4.226 0 00-3.802 3.802c0 .04-.04.04-.04 0a4.226 4.226 0 00-3.802-3.802v-.041zM165.08 107.312a4.227 4.227 0 003.802-3.802c0-.041.04-.041.04 0a4.228 4.228 0 003.802 3.802c.041 0 .041.04 0 .04a4.228 4.228 0 00-3.802 3.802c0 .041-.04.041-.04 0a4.227 4.227 0 00-3.802-3.802c-.04 0-.04-.04 0-.04zM180.044 58.413a4.227 4.227 0 003.802-3.802c0-.04.04-.04.04 0a4.227 4.227 0 003.802 3.802c.041 0 .041.04 0 .04a4.227 4.227 0 00-3.802 3.802c0 .04-.04.04-.04 0a4.227 4.227 0 00-3.802-3.802c-.04 0-.04-.04 0-.04zM269.47 99.182a3.005 3.005 0 002.629-2.629c0-.04.041-.04.041 0a3.007 3.007 0 002.629 2.63c.04 0 .04.04 0 .04a3.008 3.008 0 00-2.629 2.629c0 .04-.041.04-.041 0a3.006 3.006 0 00-2.629-2.63v-.04zM301.301 140.922a3.004 3.004 0 002.629-2.628c0-.041.041-.041.041 0a3.006 3.006 0 002.629 2.628c.04 0 .04.041 0 .041a3.008 3.008 0 00-2.629 2.629c0 .04-.041.04-.041 0a3.006 3.006 0 00-2.629-2.629v-.041zM169.205 48.625a3.005 3.005 0 002.629-2.629c0-.04.041-.04.041 0a3.007 3.007 0 002.629 2.63c.04 0 .04.04 0 .04a3.007 3.007 0 00-2.629 2.629c0 .04-.041.04-.041 0a3.005 3.005 0 00-2.629-2.63c-.04-.04-.04-.04 0-.04zM127.141 105.816a3.008 3.008 0 002.629-2.629c0-.041.041-.041.041 0a3.006 3.006 0 002.629 2.629c.04 0 .04.04 0 .04a3.006 3.006 0 00-2.629 2.629c0 .04-.041.04-.041 0a3.008 3.008 0 00-2.629-2.629c-.04 0-.04-.04 0-.04zM175.272 95.987a3.007 3.007 0 002.629-2.629c0-.04.04-.04.04 0a3.007 3.007 0 002.629 2.629c.041 0 .041.04 0 .04a3.007 3.007 0 00-2.629 2.63c0 .04-.04.04-.04 0a3.007 3.007 0 00-2.629-2.63v-.04zM337.015 193.34a3.008 3.008 0 002.629-2.629c0-.04.041-.04.041 0a3.006 3.006 0 002.629 2.629c.04 0 .04.04 0 .04a3.006 3.006 0 00-2.629 2.629c0 .041-.041.041-.041 0a3.008 3.008 0 00-2.629-2.629c-.04 0-.04-.04 0-.04z" fill="#F7F8F8"/></g><defs><clipPath id="clip0"><path fill="#fff" d="M0 0h380v254H0z"/></clipPath></defs></svg>