<svg viewBox="0 0 380 254" fill="none" xmlns="http://www.w3.org/2000/svg"><g clip-path="url(#clip0)"><path d="M475.35 0H-10v254h485.35V0z" fill="#BBECF6"/><path d="M37.645 25.521c-14.561 0-26.857 9.788-30.658 23.136h61.356C64.5 35.269 52.205 25.521 37.644 25.521zM121.327 25.521c-14.56 0-26.856 9.788-30.658 23.136h61.356c-3.842-13.388-16.137-23.135-30.698-23.135z" fill="#7DE3F4"/><path d="M81.447 15.612c-20.83 0-38.383 13.954-43.803 33.045h87.647c-5.461-19.09-23.014-33.045-43.844-33.045z" fill="#7DE3F4"/><path d="M176.374 181.399c-19.616 0-36.159 13.145-41.295 31.144h82.59c-5.137-17.958-21.679-31.144-41.295-31.144zM288.975 181.399c-19.616 0-36.158 13.145-41.295 31.144h82.59c-5.136-17.958-21.679-31.144-41.295-31.144z" fill="#3FCDE3"/><path d="M235.344 168.093c-28.029 0-51.649 18.807-58.97 44.45h117.94c-7.32-25.683-30.981-44.45-58.97-44.45z" fill="#3FCDE3"/><path d="M236.679 45.866h-76.645V151.55h76.645V45.866z" fill="#fff"/><path d="M178.76 103.987a2.477 2.477 0 01-2.467 2.467 2.477 2.477 0 01-2.467-2.467 2.477 2.477 0 012.467-2.467 2.451 2.451 0 012.467 2.467z" fill="#A0084C"/><path d="M189.801 103.987a2.477 2.477 0 01-2.467 2.467 2.451 2.451 0 01-2.467-2.467 2.477 2.477 0 012.467-2.467 2.451 2.451 0 012.467 2.467z" fill="#FF7975"/><path d="M200.803 103.987a2.477 2.477 0 01-2.467 2.467 2.477 2.477 0 01-2.467-2.467 2.477 2.477 0 012.467-2.467 2.451 2.451 0 012.467 2.467zM211.845 103.987a2.477 2.477 0 01-2.467 2.467 2.477 2.477 0 01-2.468-2.467 2.477 2.477 0 012.468-2.467 2.451 2.451 0 012.467 2.467zM222.846 103.987a2.477 2.477 0 01-2.467 2.467 2.477 2.477 0 01-2.468-2.467 2.477 2.477 0 012.468-2.467 2.451 2.451 0 012.467 2.467z" fill="#FC4E6D"/><path d="M217.911 63.93a2.477 2.477 0 012.467-2.468 2.477 2.477 0 012.468 2.467 2.477 2.477 0 01-2.468 2.468 2.451 2.451 0 01-2.467-2.468z" fill="#A0084C"/><path d="M206.87 63.93a2.477 2.477 0 012.467-2.467 2.451 2.451 0 012.468 2.467 2.477 2.477 0 01-2.468 2.467 2.451 2.451 0 01-2.467-2.467z" fill="#FF7975"/><path d="M195.868 63.93a2.477 2.477 0 012.467-2.467 2.477 2.477 0 012.467 2.467 2.477 2.477 0 01-2.467 2.467 2.451 2.451 0 01-2.467-2.467zM184.826 63.93a2.477 2.477 0 012.468-2.467 2.477 2.477 0 012.467 2.467 2.477 2.477 0 01-2.467 2.467 2.451 2.451 0 01-2.468-2.467zM173.825 63.93a2.477 2.477 0 012.468-2.467 2.477 2.477 0 012.467 2.467 2.477 2.477 0 01-2.467 2.467 2.451 2.451 0 01-2.468-2.467z" fill="#FC4E6D"/><path d="M222.846 114.34h-48.98v1.254h48.98v-1.254zM222.846 117.455h-48.98v1.253h48.98v-1.253zM222.846 120.569h-48.98v1.254h48.98v-1.254zM222.846 123.684h-48.98v1.253h48.98v-1.253zM222.846 126.797h-48.98v1.254h48.98v-1.254zM222.846 129.912h-48.98v1.253h48.98v-1.253zM207.274 133.026h-33.408v1.254h33.408v-1.254zM222.547 75.394h-48.98v1.254h48.98v-1.254zM222.547 78.508h-48.98v1.254h48.98v-1.254zM222.547 81.623h-48.98v1.253h48.98v-1.253zM222.547 84.737h-48.98v1.254h48.98v-1.254zM222.547 87.851h-48.98v1.254h48.98V87.85zM222.547 90.965h-48.98v1.254h48.98v-1.254zM206.975 94.08h-33.408v1.254h33.408V94.08z" fill="#B3B3B3"/><path d="M169.863 55.613H93.218v105.685h76.645V55.613z" fill="#E6F2F2"/><path d="M111.945 113.734a2.477 2.477 0 01-2.468 2.467 2.451 2.451 0 01-2.467-2.467 2.477 2.477 0 012.467-2.467 2.451 2.451 0 012.468 2.467z" fill="#A0084C"/><path d="M122.986 113.734a2.477 2.477 0 01-2.467 2.467 2.451 2.451 0 01-2.467-2.467 2.477 2.477 0 012.467-2.467 2.451 2.451 0 012.467 2.467zM133.987 113.734a2.477 2.477 0 01-2.467 2.467 2.451 2.451 0 01-2.467-2.467 2.477 2.477 0 012.467-2.467 2.451 2.451 0 012.467 2.467z" fill="#FC4E6D"/><path d="M145.029 113.734a2.477 2.477 0 01-2.467 2.467 2.477 2.477 0 01-2.467-2.467 2.477 2.477 0 012.467-2.467 2.451 2.451 0 012.467 2.467zM156.031 113.734a2.477 2.477 0 01-2.468 2.467 2.451 2.451 0 01-2.467-2.467 2.477 2.477 0 012.467-2.467 2.451 2.451 0 012.468 2.467z" fill="#FF7975"/><path d="M111.945 74.993a2.477 2.477 0 01-2.468 2.467 2.451 2.451 0 01-2.467-2.467 2.477 2.477 0 012.467-2.468 2.451 2.451 0 012.468 2.468zM122.986 74.993a2.477 2.477 0 01-2.467 2.467 2.451 2.451 0 01-2.467-2.467 2.477 2.477 0 012.467-2.468 2.451 2.451 0 012.467 2.468z" fill="#A0084C"/><path d="M133.987 74.993a2.477 2.477 0 01-2.467 2.467 2.451 2.451 0 01-2.467-2.467 2.477 2.477 0 012.467-2.468 2.451 2.451 0 012.467 2.468z" fill="#FC4E6D"/><path d="M145.029 74.993a2.477 2.477 0 01-2.467 2.467 2.477 2.477 0 01-2.467-2.467 2.477 2.477 0 012.467-2.468 2.451 2.451 0 012.467 2.468zM156.031 74.993a2.477 2.477 0 01-2.468 2.467 2.451 2.451 0 01-2.467-2.467 2.477 2.477 0 012.467-2.468 2.451 2.451 0 012.468 2.468z" fill="#FF7975"/><path d="M156.031 124.048h-48.98v1.254h48.98v-1.254zM156.031 127.162h-48.98v1.254h48.98v-1.254zM156.031 130.276h-48.98v1.254h48.98v-1.254zM156.031 133.391h-48.98v1.253h48.98v-1.253zM156.031 136.505h-48.98v1.254h48.98v-1.254zM156.031 139.619h-48.98v1.254h48.98v-1.254zM140.459 142.734h-33.408v1.254h33.408v-1.254zM156.031 85.228h-48.98v1.253h48.98v-1.253zM156.031 88.342h-48.98v1.254h48.98v-1.254zM156.031 91.456h-48.98v1.254h48.98v-1.254zM156.031 94.57h-48.98v1.254h48.98V94.57zM156.031 97.685h-48.98v1.253h48.98v-1.253zM156.031 100.799h-48.98v1.254h48.98v-1.254zM140.459 103.914h-33.408v1.253h33.408v-1.253z" fill="#B3B3B3"/><path d="M303.738 55.613h-76.645v105.685h76.645V55.613z" fill="#E6F2F2"/><path d="M245.82 113.734a2.477 2.477 0 01-2.468 2.467 2.477 2.477 0 01-2.467-2.467 2.477 2.477 0 012.467-2.467 2.451 2.451 0 012.468 2.467zM256.822 113.734a2.477 2.477 0 01-2.468 2.467 2.477 2.477 0 01-2.467-2.467 2.477 2.477 0 012.467-2.467 2.452 2.452 0 012.468 2.467z" fill="#FF7975"/><path d="M267.863 113.734a2.477 2.477 0 01-2.468 2.467 2.477 2.477 0 01-2.467-2.467 2.477 2.477 0 012.467-2.467 2.451 2.451 0 012.468 2.467zM278.864 113.734a2.477 2.477 0 01-2.468 2.467 2.477 2.477 0 01-2.467-2.467 2.477 2.477 0 012.467-2.467 2.451 2.451 0 012.468 2.467z" fill="#BD0057"/><path d="M289.906 113.734a2.477 2.477 0 01-2.467 2.467 2.477 2.477 0 01-2.468-2.467 2.478 2.478 0 012.468-2.467 2.451 2.451 0 012.467 2.467z" fill="#FC4E6D"/><path d="M284.972 68.847a2.477 2.477 0 012.467-2.467 2.477 2.477 0 012.467 2.467 2.477 2.477 0 01-2.467 2.467 2.451 2.451 0 01-2.467-2.467zM273.97 68.847a2.477 2.477 0 012.467-2.467 2.477 2.477 0 012.467 2.467 2.477 2.477 0 01-2.467 2.467 2.451 2.451 0 01-2.467-2.467z" fill="#FF7975"/><path d="M262.929 68.847a2.477 2.477 0 012.467-2.467 2.477 2.477 0 012.467 2.467 2.477 2.477 0 01-2.467 2.467 2.451 2.451 0 01-2.467-2.467zM251.928 68.847a2.477 2.477 0 012.467-2.467 2.477 2.477 0 012.467 2.467 2.477 2.477 0 01-2.467 2.467 2.451 2.451 0 01-2.467-2.467z" fill="#BD0057"/><path d="M240.885 68.847a2.478 2.478 0 012.468-2.467 2.477 2.477 0 012.467 2.467 2.477 2.477 0 01-2.467 2.467 2.452 2.452 0 01-2.468-2.467z" fill="#FC4E6D"/><path d="M289.906 124.048h-48.979v1.254h48.979v-1.254zM289.905 127.162h-48.98v1.254h48.98v-1.254zM289.905 130.276h-48.98v1.254h48.98v-1.254zM289.905 133.391h-48.98v1.253h48.98v-1.253zM289.905 136.505h-48.98v1.254h48.98v-1.254zM289.905 139.619h-48.98v1.254h48.98v-1.254zM274.334 142.734h-33.409v1.254h33.409v-1.254zM288.927 82.769h-48.98v1.254h48.98v-1.254zM288.926 85.883h-48.98v1.254h48.98v-1.254zM288.926 88.998h-48.98v1.253h48.98v-1.253zM288.926 92.112h-48.98v1.254h48.98v-1.254zM288.926 95.226h-48.98v1.254h48.98v-1.254zM288.926 98.34h-48.98v1.254h48.98V98.34zM273.354 101.455h-33.408v1.254h33.408v-1.254z" fill="#B3B3B3"/><path d="M345.681 225.769H119.67c-4.166 0-7.564-3.398-7.564-7.564 0-4.165 3.398-7.563 7.564-7.563h225.971c4.166 0 7.563 3.398 7.563 7.563.041 4.207-3.357 7.564-7.523 7.564z" fill="#01B6D1"/><path d="M350.049 145.848c-7.684 0-14.156 5.136-16.178 12.214h32.357c-2.023-7.037-8.494-12.214-16.179-12.214zM394.176 145.848c-7.685 0-14.156 5.136-16.179 12.214h32.357c-1.982-7.037-8.494-12.214-16.178-12.214z" fill="#7DE3F4"/><path d="M373.144 140.63c-10.961 0-20.223 7.362-23.095 17.433h46.23c-2.872-10.071-12.134-17.433-23.135-17.433z" fill="#7DE3F4"/><path d="M40.112 46.27c-9.505 0-17.554 6.391-20.02 15.087h40.081C57.665 52.62 49.617 46.27 40.112 46.27zM94.754 46.27c-9.505 0-17.553 6.391-20.02 15.087h40.081a20.83 20.83 0 00-20.06-15.087z" fill="#fff"/><path d="M68.707 39.799c-13.59 0-25.076 9.1-28.635 21.557h57.23A29.663 29.663 0 0068.707 39.8z" fill="#fff"/><path d="M230.657 155.154l2.843.875 10.273-33.36-2.844-.875-10.272 33.36z" fill="#00183A"/><path d="M229.531 155.701l4.55 1.401 7.459-24.224-4.549-1.401-7.46 24.224z" fill="#FC4E6D"/><path d="M229.668 99.822c-3.054 9.877 2.499 20.349 12.376 23.363 9.877 3.055 20.349-2.499 23.364-12.376 3.054-9.877-2.499-20.348-12.376-23.363-9.877-3.015-20.309 2.499-23.364 12.376zm1.627.515c2.776-8.964 12.296-14.002 21.261-11.265 8.964 2.777 14.002 12.297 11.265 21.261-2.777 8.965-12.297 14.003-21.261 11.266-9.004-2.777-14.042-12.297-11.265-21.262z" fill="#00183A"/><path opacity=".61" d="M259.56 117.378c6.645-6.646 6.645-17.42 0-24.065-6.646-6.646-17.42-6.646-24.066 0-6.645 6.645-6.645 17.419 0 24.065 6.646 6.645 17.42 6.645 24.066 0z" fill="#fff"/><path d="M232.801 140.677s3.61-2.816 3.649-3.966c0-1.151-3.728 1.15-4.72 3.728l1.071.238z" fill="#fff"/><path d="M233 141.51c-.357-.674-.674-1.349-1.031-2.063-11.82 5.792-11.067 6.03-24.633 3.491-2.062-.397-1.824.754-1.943 2.102-.278.08-.278.04 0 0-.119 1.349.555 1.547 2.221 1.825 10.948 1.824 16.422 1.388 25.386-5.355z" fill="#00183A"/><path d="M195.673 169.316s-1.348 4.363-.714 5.315c.635.952 2.42-3.054 1.746-5.751l-1.032.436z" fill="#fff"/><path d="M194.999 169.713c.753-.08 1.507-.08 2.3-.159-.674-13.13-1.19-12.535 6.466-23.998 1.19-1.745.04-1.983-1.15-2.618.039-.278.079-.278 0 0-1.151-.635-1.627-.079-2.539 1.349-5.99 9.282-7.735 14.517-5.077 25.426z" fill="#00183A"/><path d="M207.256 219.97h-.158a.842.842 0 01-.675-1.031l1.27-6.267a.842.842 0 011.031-.675c.476.08.793.556.674 1.032l-1.269 6.267c-.079.357-.436.674-.873.674z" fill="#fff"/><path d="M209.2 216.32a21.693 21.693 0 01-2.817-.277c2.817-15.034 4.959-35.263-2.578-49.345a539.886 539.886 0 016.902-3.292c5.474 12.257.793 39.944-1.507 52.914z" fill="#00183A"/><path d="M206.145 218.78s-.555 2.301 0 2.341c.556.079 8.489.317 8.529-.08.158-1.269-6.307-2.419-6.942-2.3-.635.158-1.507-.318-1.587.039z" fill="#1A1C2E"/><path d="M191.113 219.731c-.04 0-.119-.039-.159-.039-.436-.199-.674-.714-.476-1.151l2.46-5.91c.198-.436.714-.674 1.15-.476.436.199.674.714.476 1.151l-2.459 5.91c-.159.396-.556.634-.992.515z" fill="#fff"/><path d="M194.087 215.963a21.4 21.4 0 01-2.658-.991c6.624-13.804 13.962-32.764 10.353-48.314a492.67 492.67 0 017.497-1.388c2.102 13.288-9.599 38.794-15.192 50.693z" fill="#003057"/><path d="M190.398 218.78s-.555 2.301 0 2.341c.555.079 8.489.317 8.528-.08.159-1.269-6.307-2.419-6.941-2.3-.675.158-1.508-.318-1.587.039z" fill="#1A1C2E"/><path d="M212.77 168.523c-1.508-.516-4.602.317-6.069 0-2.182-.436-3.293-.278-5.435-.159-.277-6.822-.039-13.962-.555-20.626-.119-1.388-.159-2.261.079-3.292.357-1.428 1.071-2.38 2.063-2.896 1.19-.635 2.658-.595 4.205.198.198.119.436.238.674.397.912.674 1.745 2.023 1.864 4.562.278 6.306 1.944 15.271 3.174 21.816z" fill="#00183A"/><path d="M207.653 142.145l-.119 4.284-.159 5.355-2.221-4.998-2.34-5.236c1.19-.635 2.657-.595 4.204.198.199.08.437.199.635.397z" fill="#FFDDD5"/><path d="M203.131 137.424c1.468 2.261 4.205 3.055 5.593 2.182 1.388-.912.833-3.173-.595-5.395-1.428-2.221-3.332-2.657-4.72-1.785-1.389.873-1.746 2.737-.278 4.998z" fill="#fff"/><path d="M202.615 138.852c.357.516 1.309.873 1.666.595.397-.238.199-.754-.158-1.269-.357-.516-.952-.833-1.349-.556-.357.278-.476.714-.159 1.23z" fill="#fff"/><path d="M203.448 137.028l2.816-.278c.04.397.318 4.046.199 5.434-.119.437-.794.635-1.547.437-.675-.159-1.19-.595-1.19-.992.039-.793-.119-3.253-.278-4.601z" fill="#fff"/><path d="M204.52 138.178c.396-.436.793-.039 1.785.516.991.555 2.776.397 2.895-1.904.08-1.468.913.952.913.952.158 1.23-.159 1.944-.992 2.499-1.111.714-2.935.635-4.522-.317-.238-.635-.357-1.428-.079-1.746z" fill="#00183A"/><path d="M209.279 136.71s-.04 0-.079.04c-.476.278-2.737 1.507-2.936 2.42-.238 1.031 1.19-.397 1.627-1.071.436-.675.952-.556 1.428-.714.476-.119.714-.714-.04-.675zM201.862 136.195s-.476-1.745.317-3.015c.793-1.269 3.015-2.578 4.799-.872 0 0 1.151 1.309-.555 2.578-1.705 1.229-1.904.119-2.3 1.507-.397 1.388-1.587 1.19-1.627 1.468l-.634-1.666z" fill="#00183A"/><path d="M207.534 146.389l-.159 5.355-2.221-4.958.079-3.253h.992l1.309 2.856z" fill="#DD2762"/><path d="M54.754 192.037c14.48 12.902 34.824 13.671 34.824 13.671L37.2 159.033s3.074 20.102 17.554 33.004z" fill="#01B6D1"/><path d="M37.2 159.033l52.377 46.715s-3.073-20.142-17.553-33.044C57.544 159.802 37.2 159.033 37.2 159.033z" fill="#3FCDE3"/><path d="M73.116 172.947c3.68 19.009 19.374 31.992 19.374 31.992L79.223 136.02c0 .04-9.747 17.917-6.107 36.927z" fill="#01B6D1"/><path d="M79.223 136.06l13.267 68.92s9.747-17.877 6.107-36.927c-3.64-19.05-19.374-31.993-19.374-31.993z" fill="#3FCDE3"/><path d="M313.04 205.667c-14.56 0-26.856 9.788-30.657 23.135h61.356c-3.843-13.347-16.138-23.135-30.699-23.135zM396.723 205.667c-14.56 0-26.856 9.788-30.658 23.135h61.356c-3.842-13.347-16.097-23.135-30.698-23.135z" fill="#ECF9FB"/><path d="M356.843 195.758c-20.829 0-38.383 13.954-43.803 33.044h87.646c-5.46-19.05-23.013-33.044-43.843-33.044z" fill="#ECF9FB"/><path d="M79.75 198.549c-12.215 0-22.488 8.17-25.684 19.373h51.407c-3.195-11.203-13.509-19.373-25.724-19.373zM149.842 198.549c-12.214 0-22.488 8.17-25.683 19.373h51.407c-3.195-11.203-13.509-19.373-25.724-19.373z" fill="#7DE3F4"/><path d="M116.474 190.217c-17.432 0-32.155 11.689-36.684 27.665h73.409c-4.611-15.936-19.293-27.665-36.725-27.665z" fill="#7DE3F4"/><path d="M154.574 217.801h.162c.485-.04.849-.485.768-.93l-.606-6.228c-.041-.486-.486-.85-.93-.769-.486.041-.85.485-.769.93l.607 6.229c0 .404.364.728.768.768z" fill="#fff"/><path d="M156.353 217.235s.607 2.224.081 2.305c-.526.081-8.291.566-8.332.202-.202-1.213 6.108-2.548 6.714-2.467.607.122 1.456-.364 1.537-.04z" fill="#1A1C2E"/><path d="M162.744 138.689s-2.912-3.438-2.71-4.53c.202-1.092 3.357 1.82 3.802 4.49l-1.092.04z" fill="#fff"/><path d="M162.057 139.054c.485-.607.97-1.173 1.415-1.78 13.064 10.152-.323 19.738-9.585 9.343-1.416-1.577-.647-1.618.323-2.508-.081-.242-.081-.242 0 0 1.011-.89 1.78-.566 2.629.526 5.703 7.119 15.208 2.872 5.218-5.581z" fill="#BD0057"/><path d="M159.347 213.271l-.122-.121a.882.882 0 010-1.214l4.449-4.408a.88.88 0 011.214 0 .88.88 0 010 1.213l-4.449 4.409a.918.918 0 01-1.092.121z" fill="#fff"/><path d="M162.785 211.532c-.768-.647-1.496-1.294-2.184-2.022 15.572-19.374 15.976-28.474-7.604-40.527 1.092-2.346 2.306-4.651 3.519-6.916 23.701 15.733 22.731 28.352 6.269 49.465z" fill="#00183A"/><path d="M152.835 214.687c.971-.04 1.942-.081 2.872-.243-3.357-14.762-2.993-36.603 1.941-51.164a374.969 374.969 0 00-7.239-2.143c-2.832 15.167.08 38.666 2.426 53.55z" fill="#003057"/><path d="M159.064 211.694s-1.699 1.577-1.294 1.901c.404.364 6.754 4.854 6.956 4.57.809-.93-3.842-5.379-4.408-5.622-.566-.242-1.011-1.092-1.254-.849z" fill="#1A1C2E"/><path d="M150.166 167.244c1.213-.485 2.952-.93 5.945-1.052 2.063-.08 3.681 0 4.934.162-5.298-11.365-6.228-17.027-5.743-20.223.243-1.577-.364-3.195-1.658-4.166l-.485-.364c-2.306-1.779-5.703-.525-6.27 2.346-.202.971-.323 2.063-.404 3.276-.243 5.865.526 12.255 3.681 20.021z" fill="#BD0057"/><path d="M145.272 163.847s4.166 2.184 4.408 3.357c.243 1.173-3.963-.445-5.46-2.872l1.052-.485z" fill="#fff"/><path d="M146.364 164.089a26.102 26.102 0 00-1.456 1.577c-8.858-8.291-12.134-17.189.971-22.528 2.022-.809 1.86-.202 2.386.971.283.162.202.081 0 0 .526 1.173.688 1.901-1.173 2.507-12.376 3.964-6.431 9.91-.728 17.473z" fill="#BD0057"/><path d="M125.211 142.248l-1.659-4.772 29.688-10.314" stroke="#BD0057" stroke-width="5.431" stroke-miterlimit="10"/><path d="M121.426 148.126l-1.642-4.738-6.152 2.132 1.642 4.739 6.152-2.133z" fill="#BD0057"/><path d="M199.51 118.426a.676.676 0 01.404-.849l3.438-1.214a.677.677 0 01.849.405.677.677 0 01-.404.849l-3.438 1.213c-.364.122-.728-.04-.849-.404z" fill="#292B3B"/><path d="M201.248 118.911l-.688-1.941-5.541-.566 2.224 6.39 4.005-3.883z" fill="#BD0057"/><path d="M194.975 116.375l-76.618 26.558 2.212 6.382 76.618-26.559-2.212-6.381z" fill="#FC4E6D"/><path d="M148.993 136.95c1.051 2.548 3.64 3.883 5.177 3.236 1.537-.647 1.456-2.993.445-5.541-1.052-2.548-2.831-3.317-4.368-2.71-1.537.687-2.306 2.508-1.254 5.015z" fill="#fff"/><path d="M149.438 137.071l2.871-.283c.041.405.324 4.126.203 5.541-.122.445-.809.647-1.578.445-.687-.162-1.213-.607-1.213-1.011.04-.849-.162-3.317-.283-4.692z" fill="#fff"/><path d="M153.846 132.582c-.081-.081-.121-.162-.202-.243.121-.202.243-.404.121-.607-.121-.242-.445-.283-.687-.283.04-.242 0-.485-.081-.728-.121-.202-.324-.404-.566-.404-.243 0-.364.081-.567-.081-.121-.121-.161-.283-.283-.364-.162-.121-.364.081-.445.243-.04.202-.04.404-.121.566-.081.162-.202.243-.324.364-.161.162-.283.364-.404.566-.607.202-1.133.566-1.456.93-.243.284-.445.567-.566.89-.041.041-.041.041-.081.041-.081.04-.162.04-.243.04a.905.905 0 00-.687.769c-.081.364.04.728.202 1.051.081.162.202.364.202.566 0 .081-.04.162-.081.243-.081.243-.121.526 0 .728.121.243.364.405.647.364.081 0 .162-.04.283-.081.122-.04.324-.081.486-.162.404-.08.849-.283 1.213-.97.647-1.335.647-.122 2.589-1.052 1.941-.849 1.051-2.386 1.051-2.386z" fill="#00183A"/><path d="M148.225 138.123c.242.607 1.132 1.092 1.577.93.445-.161.324-.687.081-1.294-.243-.606-.809-1.011-1.254-.849-.445.202-.647.607-.404 1.213zM326.955 180.227a4.291 4.291 0 003.68-3.681c0-.04.081-.04.081 0a4.292 4.292 0 003.681 3.681c.04 0 .04.081 0 .081a4.292 4.292 0 00-3.681 3.681c0 .04-.081.04-.081 0a4.291 4.291 0 00-3.68-3.681c-.081 0-.081-.041 0-.081zM216.376 196.931a4.289 4.289 0 003.68-3.68c0-.041.081-.041.081 0a4.291 4.291 0 003.681 3.68c.04 0 .04.081 0 .081a4.292 4.292 0 00-3.681 3.681c0 .04-.081.04-.081 0a4.29 4.29 0 00-3.68-3.681c-.041 0-.041-.081 0-.081zM240.795 46.584a4.292 4.292 0 003.681-3.681c0-.04.081-.04.081 0a4.29 4.29 0 003.68 3.68c.041 0 .041.081 0 .081a4.29 4.29 0 00-3.68 3.68c0 .041-.081.041-.081 0a4.291 4.291 0 00-3.681-3.68c-.04 0-.04-.08 0-.08zM40.638 201.218a4.29 4.29 0 003.68-3.68c0-.041.082-.041.082 0a4.29 4.29 0 003.68 3.68c.04 0 .04.081 0 .081a4.291 4.291 0 00-3.68 3.681c0 .04-.081.04-.081 0a4.291 4.291 0 00-3.68-3.681c-.041-.04-.041-.081 0-.081zM315.427 168.942a3.004 3.004 0 002.508-2.507c0-.041.081-.041.081 0a3.003 3.003 0 002.507 2.507c.041 0 .041.081 0 .081a3.004 3.004 0 00-2.507 2.508c0 .04-.081.04-.081 0a3.005 3.005 0 00-2.508-2.508c-.04-.04-.04-.081 0-.081zM117.971 181.359a3.003 3.003 0 002.507-2.507c0-.041.081-.041.081 0a3.004 3.004 0 002.508 2.507c.04 0 .04.081 0 .081a3.005 3.005 0 00-2.508 2.508c0 .04-.081.04-.081 0a3.004 3.004 0 00-2.507-2.508c-.041 0-.041-.04 0-.081zM60.82 155.798a3.004 3.004 0 002.508-2.508c0-.04.08-.04.08 0a3.004 3.004 0 002.509 2.508c.04 0 .04.081 0 .081a3.003 3.003 0 00-2.508 2.507c0 .041-.081.041-.081 0a3.003 3.003 0 00-2.508-2.507c-.04 0-.04-.081 0-.081z" fill="#fff"/></g><defs><clipPath id="clip0"><path fill="#fff" d="M0 0h380v254H0z"/></clipPath></defs></svg>