<?xml version="1.0" encoding="utf-8"?>
<!-- Generator: Adobe Illustrator 24.0.3, SVG Export Plug-In . SVG Version: 6.00 Build 0)  -->
<svg version="1.1" id="Layer_1" xmlns="http://www.w3.org/2000/svg" xmlns:xlink="http://www.w3.org/1999/xlink" x="0px" y="0px"
	 viewBox="0 0 207 117" style="enable-background:new 0 0 207 117;" xml:space="preserve">
<style type="text/css">
	.st0{fill:#FFF8E9;}
	.st1{fill:none;stroke:#FFAE0C;stroke-width:2;stroke-linecap:round;stroke-linejoin:round;stroke-miterlimit:10;}
	.st2{fill:none;stroke:#3B3E54;stroke-width:4.7208;stroke-linecap:round;stroke-linejoin:round;stroke-miterlimit:10;}
	.st3{fill:#FFAE0C;}
	.st4{fill:#FFD072;}
	.st5{fill:#E63939;}
	.st6{fill:#7DE3F4;}
	.st7{fill:#212225;}
	.st8{fill:#006184;}
	.st9{fill:#FC7473;}
	.st10{fill:#535755;}
	.st11{fill:#C76663;}
	.st12{fill:#F68D2E;}
	.st13{fill:#FFFFFF;}
</style>
<g>
	<path class="st0" d="M136.5,43.1c-3.3,0-6.6,0.5-9.7,1.4c-7.9-10.3-20.3-17-34.2-17c-20.6,0-37.9,14.6-42.2,34.2
		c-0.6-0.1-1.2-0.2-1.8-0.2c-4.7,0-8.5,3.9-8.5,8.6c0,0.6,0.1,1.2,0.2,1.7C31,74.3,24,82.9,24,93.2c0,4.1,1.1,8,3.1,11.3h134.7
		C168.1,97.9,172,89,172,79.1C172,59.2,156.1,43.1,136.5,43.1z"/>
	<path class="st1" d="M142.2,103.8V61.7"/>
	<path class="st2" d="M142.2,92.6l5-5"/>
	<path class="st1" d="M142.2,87.7l-5.2-5.2"/>
	<path class="st1" d="M142.2,74l-3.2-3.2"/>
	<path class="st3" d="M142.2,46.4v22.9c0,0,4.8-5.1,4.8-11.4C147,51.6,142.2,46.4,142.2,46.4z"/>
	<path class="st4" d="M137.4,57.9c0,6.3,4.8,11.4,4.8,11.4V46.4C142.2,46.4,137.4,51.6,137.4,57.9z"/>
	<path class="st3" d="M138.1,83.6L122,67.5c0,0,0.2,7,4.7,11.4C131.2,83.3,138.1,83.6,138.1,83.6z"/>
	<path class="st4" d="M133.5,72.2c-4.5-4.4-11.4-4.7-11.4-4.7l16.1,16.1C138.1,83.6,137.9,76.6,133.5,72.2z"/>
	<path class="st1" d="M142.2,78.8l2.5-2.5"/>
	<path class="st3" d="M160.5,60.6l-16.1,16.1c0,0,7-0.2,11.4-4.7C160.2,67.5,160.5,60.6,160.5,60.6z"/>
	<path class="st4" d="M149.1,65.3c-4.5,4.4-4.7,11.4-4.7,11.4l16.1-16.1C160.5,60.6,153.5,60.8,149.1,65.3z"/>
	<path class="st1" d="M61.2,105.4V84.3"/>
	<path class="st1" d="M61.2,94.2l5-5"/>
	<path class="st1" d="M61.2,96.1l-5.2-5.2"/>
	<path class="st3" d="M61.2,63.1V86c0,0,4.8-5.1,4.8-11.4C66,68.2,61.2,63.1,61.2,63.1z"/>
	<path class="st4" d="M56.4,74.6c0,6.3,4.8,11.4,4.8,11.4V63.1C61.2,63.1,56.4,68.2,56.4,74.6z"/>
	<path class="st3" d="M57.1,92L41,75.9c0,0,0.2,7,4.7,11.4C50.2,91.8,57.1,92,57.1,92z"/>
	<path class="st4" d="M52.4,80.6C48,76.2,41,75.9,41,75.9L57.1,92C57.1,92,56.9,85.1,52.4,80.6z"/>
	<path class="st3" d="M79.5,75.9L63.4,92c0,0,7-0.2,11.4-4.7C79.2,82.9,79.5,75.9,79.5,75.9z"/>
	<path class="st4" d="M68,80.6C63.6,85.1,63.3,92,63.3,92l16.1-16.1C79.5,75.9,72.5,76.2,68,80.6z"/>
	<path class="st4" d="M141.7,83.6c13.5,0,24.8,9,28.3,21.4h-56.7C116.8,92.6,128.2,83.6,141.7,83.6z"/>
	<path class="st4" d="M64.4,83.6c13.5,0,24.8,9,28.3,21.4H36C39.5,92.6,50.9,83.6,64.4,83.6z"/>
	<path class="st4" d="M101.2,74.4c19.2,0,35.4,12.9,40.5,30.5H60.7C65.7,87.3,82,74.4,101.2,74.4z"/>
	<path class="st3" d="M24.3,113.4h157.5c2.9,0,5.3-2,5.3-4.5s-2.4-4.5-5.3-4.5H24.3c-2.9,0-5.3,2-5.3,4.5
		C19,111.4,21.4,113.4,24.3,113.4z"/>
	<path class="st4" d="M134,91.1c0,0,0-0.1,0-0.1c0-0.3-0.3-0.5-0.6-0.5l-3.9,0.5c-0.3,0-0.5,0.3-0.5,0.6c0,0.3,0.3,0.5,0.6,0.5
		l3.9-0.5C133.8,91.5,134,91.3,134,91.1z"/>
	<path class="st5" d="M132.9,90.4c0,0,1.2-0.8,1.4-0.5c0.2,0.3,2,4.8,1.8,4.9c-0.7,0.4-2.8-3.1-2.8-3.5
		C133.2,90.9,132.7,90.5,132.9,90.4z"/>
	<path class="st4" d="M99.6,61.4c0,0-1.8-2.2-2.5-2.2c-0.7,0,0.7,2.3,2.4,2.9L99.6,61.4z"/>
	<path class="st6" d="M99.7,61.2c-0.4,0.3-0.7,0.6-1.1,0.9c5.2,6.1,10.8,7.9,15.9,0.8c0.8-1.1,0.4-1.2-0.4-1.6c0.1-0.2,0.1-0.2,0,0
		c-0.8-0.4-1-0.3-1.7,0.7C108.4,67.9,104,65.7,99.7,61.2z"/>
	<path class="st4" d="M112.7,108.8c0,0,0.1,0,0.1,0c0.3-0.1,0.5-0.4,0.4-0.6l-0.8-3.9c-0.1-0.3-0.3-0.5-0.7-0.4
		c-0.3,0.1-0.5,0.4-0.4,0.6l0.8,3.9C112.2,108.6,112.4,108.8,112.7,108.8z"/>
	<path class="st5" d="M109.2,92.4c0.5,5.7,1.3,11.4,1.7,15.5c0.6,0,1.2-0.1,1.8-0.2c7.8-3.3,16.4-10.3,18.7-17.5l0,0
		c-0.8-0.3-1.7-0.3-2.4,0.2c-3.3,2.1-16.1-0.3-12.9-15.8c-0.6-0.2-1.3-0.3-1.9-0.5c-0.9-0.2-1.9-0.5-2.8-0.7c0,0.3-0.1,0.6-0.1,0.8
		c-0.3-0.1-0.5-0.2-0.8-0.4C108.6,78.3,108.6,85.4,109.2,92.4z"/>
	<path class="st7" d="M113.7,56.5c-0.3-1.3,0.3-3.1,1.5-3.7s2.7,0.2,3.4,1.4c0.6,1.2-0.2,4-1.5,4.6
		C115.9,59.4,114.1,58.2,113.7,56.5z"/>
	<path class="st4" d="M115.4,56.5c0,1.7-1.2,3-2.2,3s-1.5-1.4-1.5-3c0-1.7,0.8-2.5,1.8-2.5C114.6,54,115.4,54.8,115.4,56.5z"/>
	<path class="st4" d="M116.1,57c0,0.4-0.4,0.9-0.7,0.9c-0.3,0-0.4-0.3-0.4-0.7c0-0.4,0.2-0.7,0.5-0.7
		C115.9,56.5,116.1,56.7,116.1,57z"/>
	<path class="st7" d="M115.6,55.4c0,0-0.3-1.1-1.2-1.4c-0.8-0.4-2.4-0.3-2.8,1.2c0,0-0.2,1.1,1.2,1.1c1.3,0.1,1-0.6,1.7,0
		c0.7,0.6,1.2,0.1,1.3,0.2L115.6,55.4z"/>
	<path class="st8" d="M109.5,77.6c1,0,2.4-0.2,3.6-0.8c0.3-0.2,0.7-0.3,1.1-0.4c0.7-0.2,1.3-0.3,1.9-0.3c0.2-3.3,0.8-12.1,0.3-13.7
		c-0.1-0.4-0.2-0.7-0.4-1c-0.1-0.2-0.2-0.4-0.3-0.6c-0.6-0.9-1.1-1.3-1.1-1.3s-0.7,0.7-1.3,0.6c-0.3,0-0.7,0.5-1,1.3l0,0
		c-0.2,0.4-0.4,0.8-0.6,1.3v0c-0.1,0.2-0.2,0.3-0.3,0.5c-0.3,0.4-0.5,0.8-0.7,1.1c-0.3,0.6-0.4,1.2,0,2.3
		C110.9,67.4,109.4,76.5,109.5,77.6z"/>
	<path class="st4" d="M115.3,57.4l-1.7-0.2c0,0.2-0.2,2.5-0.1,3.4c0.1,0.3,0.5,0.4,1,0.3c0.4-0.1,0.7-0.4,0.7-0.6h0
		C115.1,59.7,115.2,58.2,115.3,57.4z"/>
	<path class="st5" d="M113.4,108.1c0,0,0.3,1.4,0,1.5c-0.3,0-5.2,0.2-5.3,0c-0.1-0.8,3.9-1.5,4.3-1.4
		C112.8,108.2,113.3,107.9,113.4,108.1z"/>
	<path class="st4" d="M128.1,66.9c0,0,2.2-2,2.9-1.9c0.7,0.1-1.1,2.3-2.9,2.7L128.1,66.9z"/>
	<path class="st6" d="M128.3,66.6c0.2,0.4,0.4,0.8,0.7,1.2c-6.9,3.8-12.2,4.8-14.5-3.9c-0.4-1.3,0.2-1.1,0.8-1.6
		c1,0.1,1.2-0.1,1.5,1.1C118.4,71.6,122.2,68.8,128.3,66.6z"/>
	<path class="st4" d="M80.9,108.2c0,0,0.1,0,0.1,0c0.3,0,0.6-0.3,0.5-0.7l-0.4-4.4c0-0.3-0.3-0.6-0.7-0.6c-0.3,0-0.6,0.3-0.6,0.7
		l0.4,4.4C80.4,107.9,80.6,108.1,80.9,108.2z"/>
	<path class="st5" d="M82.1,107.8c0,0,0.4,1.6,0.1,1.6c-0.4,0.1-5.8,0.4-5.9,0.1c-0.1-0.9,4.3-1.8,4.7-1.7
		C81.5,107.9,82.1,107.5,82.1,107.8z"/>
	<path class="st4" d="M92.9,56c0,0,0.1-3.1,0.7-3.6c0.6-0.5,0.9,2.5-0.2,4.1L92.9,56z"/>
	<path class="st9" d="M92.4,55.6c0.5,0.2,1,0.4,1.5,0.6c-4,9.1-8.4,6.6-14.5,1.5c-0.9-0.8-0.5-1.2,0.3-1.8c-0.1-0.2-0.1-0.2,0,0
		c0.8-0.6,1.2-0.3,2,0.5C86.9,61.3,88.1,62.5,92.4,55.6z"/>
	<path class="st4" d="M84.2,105C84.2,105,84.2,104.9,84.2,105c-0.3-0.3-0.3-0.7-0.1-0.9l3.1-3.1c0.2-0.2,0.6-0.2,0.9,0
		c0.2,0.2,0.2,0.6,0,0.9l-3.1,3.1C84.8,105.1,84.5,105.1,84.2,105z"/>
	<path class="st7" d="M86.6,103.8c-0.5-0.4-1.1-0.9-1.5-1.4c10.9-13.6,11.2-20-5.3-28.5c0.8-1.6,1.6-3.3,2.5-4.9
		C98.9,80.1,98.2,89,86.6,103.8z"/>
	<path class="st10" d="M79.7,106c0.7,0,1.3-0.1,2-0.2c-2.4-10.4-2.1-25.7,1.4-35.9c-1.7-0.5-3.4-1-5.1-1.5C76,79,78,95.5,79.7,106z"
		/>
	<path class="st5" d="M84,103.9c0,0-1.2,1.1-0.9,1.3c0.3,0.2,4.7,3.4,4.9,3.2c0.6-0.7-2.7-3.8-3.1-4C84.5,104.3,84.2,103.7,84,103.9
		z"/>
	<path class="st5" d="M77.8,72.7c0.8-0.3,2.1-0.7,4.2-0.7c1.4-0.1,2.6,0,3.5,0.1c-3.7-8-4.4-11.9-4-14.2c0.2-1.1-0.3-2.2-1.2-2.9
		l-0.3-0.3c-1.6-1.2-4-0.4-4.4,1.7c-0.1,0.7-0.2,1.4-0.3,2.3C75,62.8,75.6,67.2,77.8,72.7z"/>
	<path class="st4" d="M77,51.4c0.7,1.8,2.5,2.7,3.7,2.3c1.1-0.4,1-2.1,0.3-3.9c-0.7-1.8-2-2.3-3.1-1.9C76.7,48.4,76.2,49.7,77,51.4z
		"/>
	<path class="st4" d="M77.3,51.5l2-0.2c0,0.3,0.2,2.9,0.1,3.9c-0.1,0.3-0.6,0.4-1.1,0.3c-0.5-0.1-0.9-0.4-0.9-0.7h0
		C77.5,54.2,77.4,52.5,77.3,51.5z"/>
	<path class="st7" d="M81,51.8c-0.2,0-0.4-0.1-0.6,0.1c-0.1,0-0.1,0.1-0.2,0.1c0,0-0.1,0-0.1,0.1c-0.1,0-0.2,0.1-0.2,0.2
		c-0.1,0.1-0.4,0.5-0.1,0.5c0.1,0,0.1,0,0.2,0c0.2-0.1,0.3-0.3,0.5-0.4c0,0,0.1,0,0.1,0c0.1,0,0.2-0.1,0.4-0.1c0,0,0.1,0,0.2-0.1
		c0,0,0.1-0.1,0.1-0.1C81.2,51.9,81.1,51.8,81,51.8z"/>
	<path class="st7" d="M80.4,48.4c0-0.1-0.1-0.1-0.1-0.2c0.1-0.1,0.2-0.3,0.1-0.4c-0.1-0.2-0.3-0.2-0.5-0.2c0-0.2,0-0.3-0.1-0.5
		c-0.1-0.2-0.2-0.3-0.4-0.3c-0.2,0-0.2,0.1-0.4-0.1c-0.1-0.1-0.1-0.2-0.2-0.3c-0.1-0.1-0.3,0-0.3,0.2c0,0.1,0,0.3-0.1,0.4
		c0,0.1-0.1,0.2-0.2,0.2c-0.1,0.1-0.2,0.2-0.3,0.4c-0.4,0.2-0.8,0.4-1,0.7c-0.2,0.2-0.3,0.4-0.4,0.6c0,0,0,0-0.1,0c0,0-0.1,0-0.2,0
		c-0.2,0.1-0.4,0.3-0.5,0.5c0,0.3,0,0.5,0.1,0.7c0.1,0.1,0.2,0.3,0.1,0.4c0,0.1,0,0.1-0.1,0.2c-0.1,0.2-0.1,0.4,0,0.5
		c0.1,0.2,0.3,0.3,0.4,0.3c0.1,0,0.1,0,0.2,0c0.1,0,0.2-0.1,0.4-0.1c0.3-0.1,0.6-0.2,0.8-0.7c0.5-0.9,0.5-0.1,1.8-0.7
		C81,49.4,80.4,48.4,80.4,48.4z"/>
	<path class="st4" d="M76.4,52.2c0.2,0.4,0.8,0.8,1.1,0.7c0.3-0.1,0.2-0.5,0.1-0.9c-0.2-0.4-0.6-0.7-0.9-0.6
		C76.4,51.5,76.2,51.8,76.4,52.2z"/>
	<path class="st7" d="M77.7,52.3c0,0-0.2-0.1-0.1,0.3c0.2,0.3,1.4,1.5,2.7,1.4s1.3-1.3,1.2-1.5c0-0.2-0.1-0.4-0.3,0.2
		c-0.2,0.5-0.7,1-1.3,0.9c-0.6-0.1-1.6-0.6-1.9-0.8C77.9,52.6,77.7,52.3,77.7,52.3z"/>
	<path class="st4" d="M74.3,70.3c0,0,2.9,1.5,3.1,2.3c0.2,0.8-2.8-0.3-3.8-2L74.3,70.3z"/>
	<path class="st9" d="M75.1,70.5c-0.4,0.4-0.7,0.8-1,1.1c-6.2-5.8-8.5-12.1,0.7-15.8c1.4-0.6,1.3-0.1,1.7,0.7c0.2,0.1,0.2,0.1,0,0
		c0.4,0.8,0.5,1.3-0.8,1.8C66.9,61,71.1,65.2,75.1,70.5z"/>
	<path class="st6" d="M54,15.4c12.2,0,22,6.2,22,13.8c0,4.3-3.1,8.1-7.9,10.6l1.9,8.2l-6.7-6.3c-2.8,0.8-6,1.3-9.4,1.3
		c-12.2,0-22-6.2-22-13.8C32,21.6,41.9,15.4,54,15.4z"/>
	<path class="st8" d="M68.5,23.7c0-0.3-0.3-0.6-0.6-0.6c-0.3,0-0.6,0.3-0.6,0.6c0,0.3,0.3,0.6,0.6,0.6
		C68.3,24.3,68.5,24.1,68.5,23.7z"/>
	<path class="st8" d="M66.2,23.7c0-0.3-0.3-0.6-0.6-0.6c-0.3,0-0.6,0.3-0.6,0.6c0,0.3,0.3,0.6,0.6,0.6C66,24.3,66.2,24.1,66.2,23.7z
		"/>
	<path class="st8" d="M63.9,23.7c0-0.3-0.3-0.6-0.6-0.6c-0.3,0-0.6,0.3-0.6,0.6c0,0.3,0.3,0.6,0.6,0.6
		C63.6,24.3,63.9,24.1,63.9,23.7z"/>
	<path class="st8" d="M61.6,23.7c0-0.3-0.3-0.6-0.6-0.6c-0.3,0-0.6,0.3-0.6,0.6c0,0.3,0.3,0.6,0.6,0.6
		C61.3,24.3,61.6,24.1,61.6,23.7z"/>
	<path class="st8" d="M59.3,23.7c0-0.3-0.3-0.6-0.6-0.6c-0.3,0-0.6,0.3-0.6,0.6c0,0.3,0.3,0.6,0.6,0.6C59,24.3,59.3,24.1,59.3,23.7z
		"/>
	<path class="st8" d="M56.9,23.7c0-0.3-0.3-0.6-0.6-0.6c-0.3,0-0.6,0.3-0.6,0.6c0,0.3,0.3,0.6,0.6,0.6
		C56.7,24.3,56.9,24.1,56.9,23.7z"/>
	<path class="st8" d="M54.6,23.7c0-0.3-0.3-0.6-0.6-0.6c-0.3,0-0.6,0.3-0.6,0.6c0,0.3,0.3,0.6,0.6,0.6
		C54.4,24.3,54.6,24.1,54.6,23.7z"/>
	<path class="st8" d="M52.3,23.7c0-0.3-0.3-0.6-0.6-0.6c-0.3,0-0.6,0.3-0.6,0.6c0,0.3,0.3,0.6,0.6,0.6C52,24.3,52.3,24.1,52.3,23.7z
		"/>
	<path class="st8" d="M50,23.7c0-0.3-0.3-0.6-0.6-0.6c-0.3,0-0.6,0.3-0.6,0.6c0,0.3,0.3,0.6,0.6,0.6C49.7,24.3,50,24.1,50,23.7z"/>
	<path class="st8" d="M47.7,23.7c0-0.3-0.3-0.6-0.6-0.6c-0.3,0-0.6,0.3-0.6,0.6c0,0.3,0.3,0.6,0.6,0.6
		C47.4,24.3,47.7,24.1,47.7,23.7z"/>
	<path class="st8" d="M45.4,23.7c0-0.3-0.3-0.6-0.6-0.6c-0.3,0-0.6,0.3-0.6,0.6c0,0.3,0.3,0.6,0.6,0.6
		C45.1,24.3,45.4,24.1,45.4,23.7z"/>
	<path class="st8" d="M43,23.7c0-0.3-0.3-0.6-0.6-0.6c-0.3,0-0.6,0.3-0.6,0.6c0,0.3,0.3,0.6,0.6,0.6C42.8,24.3,43,24.1,43,23.7z"/>
	<path class="st8" d="M40.7,23.7c0-0.3-0.3-0.6-0.6-0.6c-0.3,0-0.6,0.3-0.6,0.6c0,0.3,0.3,0.6,0.6,0.6
		C40.4,24.3,40.7,24.1,40.7,23.7z"/>
	<path class="st8" d="M68.5,26.2c0-0.3-0.3-0.6-0.6-0.6c-0.3,0-0.6,0.3-0.6,0.6c0,0.3,0.3,0.6,0.6,0.6
		C68.3,26.8,68.5,26.5,68.5,26.2z"/>
	<path class="st8" d="M66.2,26.2c0-0.3-0.3-0.6-0.6-0.6c-0.3,0-0.6,0.3-0.6,0.6c0,0.3,0.3,0.6,0.6,0.6C66,26.8,66.2,26.5,66.2,26.2z
		"/>
	<path class="st8" d="M63.9,26.2c0-0.3-0.3-0.6-0.6-0.6c-0.3,0-0.6,0.3-0.6,0.6c0,0.3,0.3,0.6,0.6,0.6
		C63.6,26.8,63.9,26.5,63.9,26.2z"/>
	<path class="st8" d="M61.6,26.2c0-0.3-0.3-0.6-0.6-0.6c-0.3,0-0.6,0.3-0.6,0.6c0,0.3,0.3,0.6,0.6,0.6
		C61.3,26.8,61.6,26.5,61.6,26.2z"/>
	<path class="st8" d="M59.3,26.2c0-0.3-0.3-0.6-0.6-0.6c-0.3,0-0.6,0.3-0.6,0.6c0,0.3,0.3,0.6,0.6,0.6C59,26.8,59.3,26.5,59.3,26.2z
		"/>
	<path class="st8" d="M56.9,26.2c0-0.3-0.3-0.6-0.6-0.6c-0.3,0-0.6,0.3-0.6,0.6c0,0.3,0.3,0.6,0.6,0.6
		C56.7,26.8,56.9,26.5,56.9,26.2z"/>
	<path class="st8" d="M54.6,26.2c0-0.3-0.3-0.6-0.6-0.6c-0.3,0-0.6,0.3-0.6,0.6c0,0.3,0.3,0.6,0.6,0.6
		C54.4,26.8,54.6,26.5,54.6,26.2z"/>
	<path class="st8" d="M52.3,26.2c0-0.3-0.3-0.6-0.6-0.6c-0.3,0-0.6,0.3-0.6,0.6c0,0.3,0.3,0.6,0.6,0.6C52,26.8,52.3,26.5,52.3,26.2z
		"/>
	<path class="st8" d="M50,26.2c0-0.3-0.3-0.6-0.6-0.6c-0.3,0-0.6,0.3-0.6,0.6c0,0.3,0.3,0.6,0.6,0.6C49.7,26.8,50,26.5,50,26.2z"/>
	<path class="st8" d="M47.7,26.2c0-0.3-0.3-0.6-0.6-0.6c-0.3,0-0.6,0.3-0.6,0.6c0,0.3,0.3,0.6,0.6,0.6
		C47.4,26.8,47.7,26.5,47.7,26.2z"/>
	<path class="st8" d="M45.4,26.2c0-0.3-0.3-0.6-0.6-0.6c-0.3,0-0.6,0.3-0.6,0.6c0,0.3,0.3,0.6,0.6,0.6
		C45.1,26.8,45.4,26.5,45.4,26.2z"/>
	<path class="st8" d="M43,26.2c0-0.3-0.3-0.6-0.6-0.6c-0.3,0-0.6,0.3-0.6,0.6c0,0.3,0.3,0.6,0.6,0.6C42.8,26.8,43,26.5,43,26.2z"/>
	<path class="st8" d="M40.7,26.2c0-0.3-0.3-0.6-0.6-0.6c-0.3,0-0.6,0.3-0.6,0.6c0,0.3,0.3,0.6,0.6,0.6
		C40.4,26.8,40.7,26.5,40.7,26.2z"/>
	<path class="st8" d="M68.5,28.6c0-0.3-0.3-0.6-0.6-0.6c-0.3,0-0.6,0.3-0.6,0.6c0,0.3,0.3,0.6,0.6,0.6
		C68.3,29.2,68.5,28.9,68.5,28.6z"/>
	<path class="st8" d="M65.6,29.2c-0.3,0-0.6-0.3-0.6-0.6c0-0.3,0.3-0.6,0.6-0.6c0.3,0,0.6,0.3,0.6,0.6C66.2,28.9,66,29.2,65.6,29.2z
		"/>
	<path class="st8" d="M63.3,29.2c-0.3,0-0.6-0.3-0.6-0.6c0-0.3,0.3-0.6,0.6-0.6c0.3,0,0.6,0.3,0.6,0.6
		C63.9,28.9,63.6,29.2,63.3,29.2z"/>
	<path class="st8" d="M61.6,28.6c0-0.3-0.3-0.6-0.6-0.6c-0.3,0-0.6,0.3-0.6,0.6c0,0.3,0.3,0.6,0.6,0.6
		C61.3,29.2,61.6,28.9,61.6,28.6z"/>
	<path class="st8" d="M58.7,29.2c-0.3,0-0.6-0.3-0.6-0.6c0-0.3,0.3-0.6,0.6-0.6s0.6,0.3,0.6,0.6C59.3,28.9,59,29.2,58.7,29.2z"/>
	<path class="st8" d="M56.3,29.2c-0.3,0-0.6-0.3-0.6-0.6c0-0.3,0.3-0.6,0.6-0.6c0.3,0,0.6,0.3,0.6,0.6
		C56.9,28.9,56.7,29.2,56.3,29.2z"/>
	<path class="st8" d="M54.6,28.6c0-0.3-0.3-0.6-0.6-0.6c-0.3,0-0.6,0.3-0.6,0.6c0,0.3,0.3,0.6,0.6,0.6
		C54.4,29.2,54.6,28.9,54.6,28.6z"/>
	<path class="st8" d="M51.7,29.2c-0.3,0-0.6-0.3-0.6-0.6c0-0.3,0.3-0.6,0.6-0.6c0.3,0,0.6,0.3,0.6,0.6C52.3,28.9,52,29.2,51.7,29.2z
		"/>
	<path class="st8" d="M49.4,29.2c-0.3,0-0.6-0.3-0.6-0.6c0-0.3,0.3-0.6,0.6-0.6c0.3,0,0.6,0.3,0.6,0.6C50,28.9,49.7,29.2,49.4,29.2z
		"/>
	<path class="st8" d="M47.7,28.6c0-0.3-0.3-0.6-0.6-0.6c-0.3,0-0.6,0.3-0.6,0.6c0,0.3,0.3,0.6,0.6,0.6
		C47.4,29.2,47.7,28.9,47.7,28.6z"/>
	<path class="st8" d="M45.4,28.6c0-0.3-0.3-0.6-0.6-0.6c-0.3,0-0.6,0.3-0.6,0.6c0,0.3,0.3,0.6,0.6,0.6
		C45.1,29.2,45.4,28.9,45.4,28.6z"/>
	<path class="st8" d="M42.4,29.2c-0.3,0-0.6-0.3-0.6-0.6c0-0.3,0.3-0.6,0.6-0.6c0.3,0,0.6,0.3,0.6,0.6C43,28.9,42.8,29.2,42.4,29.2z
		"/>
	<path class="st8" d="M40.7,28.6c0-0.3-0.3-0.6-0.6-0.6c-0.3,0-0.6,0.3-0.6,0.6c0,0.3,0.3,0.6,0.6,0.6
		C40.4,29.2,40.7,28.9,40.7,28.6z"/>
	<path class="st8" d="M68.5,31c0-0.3-0.3-0.6-0.6-0.6c-0.3,0-0.6,0.3-0.6,0.6s0.3,0.6,0.6,0.6C68.3,31.6,68.5,31.4,68.5,31z"/>
	<path class="st8" d="M65.6,31.6c-0.3,0-0.6-0.3-0.6-0.6s0.3-0.6,0.6-0.6c0.3,0,0.6,0.3,0.6,0.6S66,31.6,65.6,31.6z"/>
	<path class="st8" d="M63.3,31.6c-0.3,0-0.6-0.3-0.6-0.6s0.3-0.6,0.6-0.6c0.3,0,0.6,0.3,0.6,0.6S63.6,31.6,63.3,31.6z"/>
	<path class="st8" d="M61.6,31c0-0.3-0.3-0.6-0.6-0.6c-0.3,0-0.6,0.3-0.6,0.6s0.3,0.6,0.6,0.6C61.3,31.6,61.6,31.4,61.6,31z"/>
	<path class="st8" d="M58.7,31.6c-0.3,0-0.6-0.3-0.6-0.6s0.3-0.6,0.6-0.6s0.6,0.3,0.6,0.6S59,31.6,58.7,31.6z"/>
	<path class="st8" d="M56.3,31.6c-0.3,0-0.6-0.3-0.6-0.6s0.3-0.6,0.6-0.6c0.3,0,0.6,0.3,0.6,0.6S56.7,31.6,56.3,31.6z"/>
	<path class="st8" d="M54.6,31c0-0.3-0.3-0.6-0.6-0.6c-0.3,0-0.6,0.3-0.6,0.6s0.3,0.6,0.6,0.6C54.4,31.6,54.6,31.4,54.6,31z"/>
	<path class="st8" d="M51.7,31.6c-0.3,0-0.6-0.3-0.6-0.6s0.3-0.6,0.6-0.6c0.3,0,0.6,0.3,0.6,0.6S52,31.6,51.7,31.6z"/>
	<path class="st8" d="M48.8,31.1c0-0.3,0.2-0.6,0.5-0.7c0.3,0,0.6,0.2,0.7,0.5c0,0.3-0.2,0.6-0.5,0.7C49.1,31.7,48.8,31.4,48.8,31.1
		z"/>
	<path class="st8" d="M47.7,31c0-0.3-0.3-0.6-0.6-0.6c-0.3,0-0.6,0.3-0.6,0.6s0.3,0.6,0.6,0.6C47.4,31.6,47.7,31.4,47.7,31z"/>
	<path class="st8" d="M45.4,31c0-0.3-0.3-0.6-0.6-0.6c-0.3,0-0.6,0.3-0.6,0.6s0.3,0.6,0.6,0.6C45.1,31.6,45.4,31.4,45.4,31z"/>
	<path class="st8" d="M42.4,31.6c-0.3,0-0.6-0.3-0.6-0.6s0.3-0.6,0.6-0.6S43,30.7,43,31S42.8,31.6,42.4,31.6z"/>
	<path class="st8" d="M40.7,31c0-0.3-0.3-0.6-0.6-0.6c-0.3,0-0.6,0.3-0.6,0.6s0.3,0.6,0.6,0.6C40.4,31.6,40.7,31.4,40.7,31z"/>
	<path class="st8" d="M68.5,33.5c0-0.3-0.3-0.6-0.6-0.6c-0.3,0-0.6,0.3-0.6,0.6c0,0.3,0.3,0.6,0.6,0.6
		C68.3,34.1,68.5,33.8,68.5,33.5z"/>
	<path class="st8" d="M65.6,34.1c-0.3,0-0.6-0.3-0.6-0.6c0-0.3,0.3-0.6,0.6-0.6c0.3,0,0.6,0.3,0.6,0.6C66.2,33.8,66,34.1,65.6,34.1z
		"/>
	<path class="st8" d="M63.3,34.1c-0.3,0-0.6-0.3-0.6-0.6c0-0.3,0.3-0.6,0.6-0.6c0.3,0,0.6,0.3,0.6,0.6
		C63.9,33.8,63.6,34.1,63.3,34.1z"/>
	<path class="st8" d="M61.6,33.5c0-0.3-0.3-0.6-0.6-0.6c-0.3,0-0.6,0.3-0.6,0.6c0,0.3,0.3,0.6,0.6,0.6
		C61.3,34.1,61.6,33.8,61.6,33.5z"/>
	<path class="st8" d="M58.7,34.1c-0.3,0-0.6-0.3-0.6-0.6c0-0.3,0.3-0.6,0.6-0.6s0.6,0.3,0.6,0.6C59.3,33.8,59,34.1,58.7,34.1z"/>
	<path class="st8" d="M56.3,34.1c-0.3,0-0.6-0.3-0.6-0.6c0-0.3,0.3-0.6,0.6-0.6c0.3,0,0.6,0.3,0.6,0.6
		C56.9,33.8,56.7,34.1,56.3,34.1z"/>
	<path class="st8" d="M54.6,33.5c0-0.3-0.3-0.6-0.6-0.6c-0.3,0-0.6,0.3-0.6,0.6c0,0.3,0.3,0.6,0.6,0.6
		C54.4,34.1,54.6,33.8,54.6,33.5z"/>
	<path class="st8" d="M51.7,34.1c-0.3,0-0.6-0.3-0.6-0.6c0-0.3,0.3-0.6,0.6-0.6c0.3,0,0.6,0.3,0.6,0.6C52.3,33.8,52,34.1,51.7,34.1z
		"/>
	<path class="st8" d="M48.8,33.6c0-0.3,0.2-0.6,0.5-0.7c0.3,0,0.6,0.2,0.7,0.5c0,0.3-0.2,0.6-0.5,0.7C49.2,34.1,48.9,33.9,48.8,33.6
		z"/>
	<path class="st8" d="M47.7,33.5c0-0.3-0.3-0.6-0.6-0.6c-0.3,0-0.6,0.3-0.6,0.6c0,0.3,0.3,0.6,0.6,0.6
		C47.4,34.1,47.7,33.8,47.7,33.5z"/>
	<path class="st8" d="M45.4,33.5c0-0.3-0.3-0.6-0.6-0.6c-0.3,0-0.6,0.3-0.6,0.6c0,0.3,0.3,0.6,0.6,0.6
		C45.1,34.1,45.4,33.8,45.4,33.5z"/>
	<path class="st8" d="M42.4,34.1c-0.3,0-0.6-0.3-0.6-0.6c0-0.3,0.3-0.6,0.6-0.6s0.6,0.3,0.6,0.6C43,33.8,42.8,34.1,42.4,34.1z"/>
	<path class="st8" d="M40.7,33.5c0-0.3-0.3-0.6-0.6-0.6c-0.3,0-0.6,0.3-0.6,0.6c0,0.3,0.3,0.6,0.6,0.6
		C40.4,34.1,40.7,33.8,40.7,33.5z"/>
	<path class="st9" d="M92,9V6.4h31.6v17.7c-0.3,0-0.7,0-1,0c-6.5,0-11.9,3.6-12.8,8.2h-3.1l-4.1,10.2l-4.1-10.2H81.6V14.5h4.9
		C89.5,14.5,92,12.1,92,9z"/>
	<path class="st4" d="M123.6,24.1c1.6,0.1,3,0.4,4.4,0.8c2.8-1.8,6.4-2.9,10.4-2.9c4,0,7.6,1.1,10.4,2.9c1.6-0.6,3.5-0.9,5.4-0.9
		c7.1,0,12.9,4.3,12.9,9.6c0,5.3-5.8,9.6-12.9,9.6c-1.9,0-3.8-0.3-5.4-0.9c-2.8,1.8-6.4,2.9-10.4,2.9c-3,0-5.7-0.6-8.1-1.7l-7,6.6
		l1.6-7.1c-0.8,0.1-1.5,0.2-2.3,0.2c-7.2,0-12.9-4.3-12.9-9.6c0-0.5,0-0.9,0.1-1.4h13.8V24.1z"/>
	<path class="st11" d="M122.6,24.1c0.3,0,0.7,0,1,0v8.2h-13.8C110.7,27.6,116.1,24.1,122.6,24.1z"/>
	<path class="st9" d="M92,6.4V9c0,3.1-2.5,5.5-5.5,5.5h-4.9V6.4H92z"/>
	<path class="st3" d="M127.7,29.7h24.8c0.3,0,0.6-0.2,0.6-0.6c0-0.3-0.2-0.6-0.6-0.6h-24.8c-0.3,0-0.6,0.2-0.6,0.6
		C127.1,29.5,127.3,29.7,127.7,29.7z"/>
	<path class="st3" d="M126.1,32.3h34.8c0.3,0,0.6-0.2,0.6-0.6c0-0.3-0.2-0.6-0.6-0.6h-34.8c-0.3,0-0.6,0.2-0.6,0.6
		C125.5,32,125.8,32.3,126.1,32.3z"/>
	<path class="st3" d="M114.3,34.8h46.6c0.3,0,0.6-0.2,0.6-0.6c0-0.3-0.2-0.6-0.6-0.6h-46.6c-0.3,0-0.6,0.2-0.6,0.6
		C113.7,34.5,114,34.8,114.3,34.8z"/>
	<path class="st3" d="M127.7,37.3h24.8c0.3,0,0.6-0.2,0.6-0.6c0-0.3-0.2-0.6-0.6-0.6h-24.8c-0.3,0-0.6,0.2-0.6,0.6
		C127.1,37.1,127.3,37.3,127.7,37.3z"/>
	<path class="st5" d="M92.1,18.8H113c1,0,1.7-0.8,1.7-1.7c0-0.9-0.8-1.7-1.7-1.7H92.1c-0.9,0-1.7,0.8-1.7,1.7
		C90.4,18,91.2,18.8,92.1,18.8z"/>
	<path class="st5" d="M92.1,24.5H113c1,0,1.7-0.8,1.7-1.7s-0.8-1.7-1.7-1.7H92.1c-0.9,0-1.7,0.8-1.7,1.7
		C90.4,23.7,91.2,24.5,92.1,24.5z"/>
	<path class="st12" d="M50.1,49.4c1.5-0.2,2.7-1.4,2.9-2.9c0,0,0.1,0,0.1,0c0.2,1.5,1.4,2.7,2.9,2.9c0,0,0,0.1,0,0.1
		c-1.5,0.2-2.7,1.4-2.9,2.9c0,0-0.1,0-0.1,0C52.8,50.9,51.6,49.7,50.1,49.4C50,49.5,50,49.4,50.1,49.4z"/>
	<path class="st13" d="M159,89.4c-1.5-0.2-2.7-1.4-2.9-2.9c0,0-0.1,0-0.1,0c-0.2,1.5-1.4,2.7-2.9,2.9c0,0,0,0.1,0,0.1
		c1.5,0.2,2.7,1.4,2.9,2.9c0,0,0.1,0,0.1,0C156.3,90.9,157.5,89.7,159,89.4C159,89.5,159,89.4,159,89.4z"/>
	<path class="st12" d="M58.1,57.9c0.7-0.1,1.3-0.7,1.4-1.4c0,0,0.1,0,0.1,0c0.1,0.7,0.7,1.3,1.4,1.4c0,0,0,0.1,0,0.1
		c-0.7,0.1-1.3,0.7-1.4,1.4c0,0-0.1,0-0.1,0C59.4,58.7,58.8,58.1,58.1,57.9C58,58,58,57.9,58.1,57.9z"/>
	<path class="st13" d="M151,97.9c-0.7-0.1-1.3-0.7-1.4-1.4c0,0-0.1,0-0.1,0c-0.1,0.7-0.7,1.3-1.4,1.4c0,0,0,0.1,0,0.1
		c0.7,0.1,1.3,0.7,1.4,1.4c0,0,0.1,0,0.1,0C149.7,98.7,150.3,98.1,151,97.9C151,98,151,97.9,151,97.9z"/>
	<path class="st5" d="M58,94.9c-0.7-0.1-1.3-0.7-1.4-1.4c0,0-0.1,0-0.1,0c-0.1,0.7-0.7,1.3-1.4,1.4c0,0,0,0.1,0,0.1
		c0.7,0.1,1.3,0.7,1.4,1.4c0,0,0.1,0,0.1,0C56.7,95.7,57.3,95.1,58,94.9C58,95,58,94.9,58,94.9z"/>
	<path class="st5" d="M132,51.9c-0.7-0.1-1.3-0.7-1.4-1.4c0,0-0.1,0-0.1,0c-0.1,0.7-0.7,1.3-1.4,1.4c0,0,0,0.1,0,0.1
		c0.7,0.1,1.3,0.7,1.4,1.4c0,0,0.1,0,0.1,0C130.7,52.7,131.3,52.1,132,51.9C132,52,132,51.9,132,51.9z"/>
	<path class="st5" d="M93.1,38.9c0.7-0.1,1.3-0.7,1.4-1.4c0,0,0.1,0,0.1,0c0.1,0.7,0.7,1.3,1.4,1.4c0,0,0,0.1,0,0.1
		c-0.7,0.1-1.3,0.7-1.4,1.4c0,0-0.1,0-0.1,0C94.4,39.7,93.8,39.1,93.1,38.9C93,39,93,38.9,93.1,38.9z"/>
</g>
</svg>
