<svg viewBox="0 0 380 254" fill="none" xmlns="http://www.w3.org/2000/svg"><g clip-path="url(#clip0)"><path d="M434.35 0H-51v254h485.35V0z" fill="#BBECF6"/><path d="M80.692 146.172c-13.63 0-25.076 9.141-28.635 21.598h57.312c-3.56-12.498-15.046-21.598-28.677-21.598z" fill="#01B6D1"/><path d="M158.874 146.172c-13.63 0-25.076 9.141-28.636 21.598h57.312c-3.6-12.498-15.086-21.598-28.676-21.598z" fill="#3CA0A3"/><path d="M121.624 136.91c-19.454 0-35.835 13.023-40.931 30.86h81.862c-5.096-17.837-21.476-30.86-40.931-30.86z" fill="#01B6D1"/><path d="M208.825 185.525c-17.149 0-31.588 11.487-36.078 27.18h72.156c-4.49-15.693-18.929-27.18-36.078-27.18zM307.23 185.525c-17.149 0-31.588 11.487-36.078 27.18h72.156c-4.49-15.693-18.929-27.18-36.078-27.18z" fill="#0181A1"/><path d="M260.354 173.876c-24.47 0-45.138 16.421-51.528 38.829h103.056c-6.431-22.448-27.059-38.829-51.528-38.829z" fill="#0181A1"/><path d="M304.68 227.751H78.669c-4.166 0-7.563-3.398-7.563-7.564s3.397-7.563 7.563-7.563H304.64c4.166 0 7.563 3.397 7.563 7.563.041 4.166-3.357 7.564-7.523 7.564z" fill="#006184"/><path d="M179.662 219.621c-.687-.122-1.173-.769-1.051-1.456.08-.688.768-1.214 1.456-1.092l.364.04c.728.121 1.213.728 1.092 1.456a1.235 1.235 0 01-1.456 1.092l-.405-.04c0 .04 0 .04 0 0zm-5.46-.89c-.04 0-.04 0 0 0l-.404-.081c-.688-.162-1.173-.809-1.012-1.537a1.328 1.328 0 011.537-1.011l.364.081a1.276 1.276 0 011.011 1.537c-.161.647-.808 1.132-1.496 1.011zm11.325 1.537c-.647-.122-1.133-.688-1.092-1.375a1.245 1.245 0 011.375-1.173l.364.04c.728.041 1.254.688 1.213 1.375-.04.728-.687 1.254-1.375 1.214l-.364-.041c-.04 0-.081-.04-.121-.04zm-17.109-2.872c-.04 0-.081 0-.121-.04l-.364-.081a1.326 1.326 0 01-.93-1.578 1.326 1.326 0 011.577-.93l.364.081c.688.162 1.092.89.93 1.577-.162.688-.768 1.092-1.456.971zm23.014 3.155c-.607-.121-1.092-.647-1.092-1.294 0-.728.607-1.295 1.335-1.254h.364c.728 0 1.294.607 1.294 1.294 0 .728-.607 1.294-1.294 1.294h-.364c-.122 0-.162 0-.243-.04zm-28.676-4.854c-.081 0-.122-.04-.202-.04l-.364-.121c-.688-.243-1.052-.971-.809-1.618.242-.688.97-1.052 1.617-.809l.324.121c.688.243 1.052.971.809 1.618-.121.607-.728.971-1.375.849zm34.581 4.773c-.607-.081-1.052-.607-1.092-1.213a1.255 1.255 0 011.254-1.335h.364a1.308 1.308 0 011.375 1.213 1.308 1.308 0 01-1.213 1.375h-.364c-.122 0-.243 0-.324-.04zm-40.122-6.795c-.081 0-.162-.04-.283-.081l-.364-.121a1.347 1.347 0 01-.728-1.699 1.347 1.347 0 011.698-.728l.324.121c.647.284.971 1.012.728 1.699-.202.607-.769.93-1.375.809zm46.027 6.35a1.248 1.248 0 01-1.052-1.132 1.28 1.28 0 011.133-1.416l.364-.04a1.28 1.28 0 011.416 1.132 1.28 1.28 0 01-1.133 1.416l-.364.04a.554.554 0 01-.364 0zm-51.447-8.696a.46.46 0 01-.324-.121l-.323-.162c-.647-.323-.93-1.092-.607-1.739.324-.647 1.092-.93 1.739-.607l.324.162c.647.324.93 1.092.607 1.739-.284.526-.85.809-1.416.728zm57.312 7.887a1.244 1.244 0 01-1.052-1.051 1.315 1.315 0 011.052-1.497l.364-.081a1.314 1.314 0 011.496 1.052c.122.687-.364 1.375-1.051 1.496l-.364.081a.817.817 0 01-.445 0zm-62.57-10.556c-.121-.041-.283-.081-.404-.162l-.324-.202c-.607-.364-.849-1.133-.485-1.78.364-.606 1.132-.849 1.779-.485l.324.162c.607.364.849 1.132.526 1.739-.324.566-.89.809-1.416.728zm68.313 9.383a1.3 1.3 0 01-1.052-.97c-.161-.688.284-1.376.971-1.537l.364-.081c.688-.162 1.375.242 1.578.97.161.688-.243 1.376-.971 1.578l-.364.081c-.162 0-.324 0-.526-.041zm-73.409-12.417c-.162-.04-.324-.08-.485-.202l-.324-.202a1.306 1.306 0 01-.405-1.78 1.307 1.307 0 011.78-.404l.324.202c.606.364.768 1.173.404 1.78a1.249 1.249 0 01-1.294.606zm79.112 10.88c-.485-.081-.89-.404-1.011-.889a1.311 1.311 0 01.89-1.618l.364-.122c.687-.202 1.415.162 1.617.85.203.687-.161 1.415-.849 1.618l-.364.121a1.194 1.194 0 01-.647.04zm-84.006-14.196a1.256 1.256 0 01-.526-.243l-.323-.242c-.567-.405-.688-1.214-.284-1.821.405-.566 1.254-.687 1.82-.283l.284.203c.566.404.687 1.213.283 1.82-.283.445-.769.606-1.254.566zm89.628 12.336c-.445-.081-.849-.364-1.011-.809-.243-.688.081-1.416.768-1.658l.324-.122c.687-.242 1.415.081 1.658.769.243.687-.081 1.415-.768 1.658l-.364.121c-.162.041-.405.081-.607.041zm-94.32-15.976c-.202-.041-.445-.122-.606-.283l-.284-.243c-.566-.445-.606-1.254-.161-1.82.445-.566 1.253-.607 1.82-.162l.283.243c.566.445.647 1.254.162 1.82a1.266 1.266 0 01-1.214.445zm99.78 13.751a1.32 1.32 0 01-.971-.768c-.283-.647 0-1.416.647-1.699l.324-.162c.647-.283 1.416 0 1.699.647.283.648 0 1.416-.647 1.699l-.364.162c-.203.121-.445.162-.688.121zm-104.229-17.675a1.526 1.526 0 01-.687-.323l-.284-.243c-.525-.485-.525-1.294-.04-1.82.485-.526 1.294-.526 1.82-.04l.283.242c.526.486.566 1.295.041 1.82-.243.324-.688.445-1.133.364zm109.568 15.127a1.345 1.345 0 01-.93-.687 1.282 1.282 0 01.566-1.74l.323-.161c.648-.324 1.416-.081 1.74.525.323.648.081 1.416-.526 1.74l-.324.161c-.323.162-.606.203-.849.162zM123.24 190.581a1.111 1.111 0 01-.728-.405l-.242-.283a1.319 1.319 0 01.04-1.82 1.32 1.32 0 011.82.04l.243.283c.485.526.485 1.335-.041 1.821-.323.323-.728.444-1.092.364zm118.871 16.421a1.383 1.383 0 01-.89-.607 1.309 1.309 0 01.445-1.78l.323-.202a1.309 1.309 0 011.78.445 1.309 1.309 0 01-.445 1.78l-.324.202c-.283.162-.566.202-.889.162zm-122.794-20.83a1.254 1.254 0 01-.768-.445l-.243-.283c-.445-.566-.364-1.375.162-1.82.566-.445 1.375-.364 1.82.162l.242.283c.445.566.405 1.375-.161 1.82-.324.243-.688.364-1.052.283zm127.768 17.634a1.279 1.279 0 01-.849-.525 1.286 1.286 0 01.324-1.78l.283-.202a1.285 1.285 0 011.779.323 1.286 1.286 0 01-.323 1.78l-.324.202c-.202.202-.566.243-.89.202zm-131.449-22.285c-.323-.041-.606-.243-.809-.526l-.202-.283c-.404-.566-.283-1.375.283-1.82.567-.405 1.376-.283 1.82.283l.203.283c.404.566.283 1.375-.283 1.82-.324.243-.648.283-1.012.243zm136.222 18.807a1.144 1.144 0 01-.809-.485c-.445-.567-.324-1.376.202-1.82l.283-.243c.567-.445 1.376-.324 1.82.202.445.566.324 1.375-.202 1.82l-.283.243c-.283.243-.647.323-1.011.283zm-139.579-23.661c-.364-.04-.647-.243-.889-.566l-.203-.324a1.262 1.262 0 01.405-1.779 1.262 1.262 0 011.779.404l.203.324a1.262 1.262 0 01-.405 1.779c-.242.162-.566.203-.89.162zm144.149 19.9a1.428 1.428 0 01-.768-.405c-.485-.526-.405-1.335.121-1.82l.283-.243a1.251 1.251 0 011.82.122c.486.525.445 1.334-.121 1.82l-.283.242c-.283.243-.688.324-1.052.284zm-147.182-24.956c-.364-.08-.728-.283-.93-.647l-.203-.323c-.364-.607-.121-1.416.486-1.78.607-.364 1.415-.121 1.779.485l.162.324c.364.607.122 1.416-.485 1.78a1.14 1.14 0 01-.809.161zm151.51 20.911a1.276 1.276 0 01-.688-.364c-.485-.526-.485-1.335 0-1.82l.243-.243a1.247 1.247 0 011.82 0 1.247 1.247 0 010 1.82l-.283.283c-.283.243-.728.364-1.092.324zm-154.26-26.169c-.405-.08-.769-.323-.931-.728l-.161-.323c-.324-.647-.041-1.416.606-1.739.647-.324 1.416-.041 1.739.606l.162.324c.324.647.041 1.416-.606 1.739-.284.162-.567.162-.809.121zm-2.387-5.379a1.268 1.268 0 01-.97-.768l-.122-.364c-.283-.647.041-1.416.728-1.699.647-.283 1.416.04 1.699.728l.121.324c.284.647-.04 1.415-.687 1.698-.324.081-.566.122-.769.081zm-2.103-5.541a1.347 1.347 0 01-1.011-.849l-.121-.364a1.294 1.294 0 01.809-1.659 1.295 1.295 0 011.658.809l.121.364a1.294 1.294 0 01-.809 1.659 1.173 1.173 0 01-.647.04zm-1.739-5.622c-.485-.081-.89-.445-1.052-.93l-.08-.364a1.247 1.247 0 01.93-1.578c.687-.202 1.415.243 1.577.931l.081.364c.202.687-.202 1.415-.89 1.577a1.314 1.314 0 01-.566 0zm-1.375-5.743c-.526-.081-.93-.486-1.052-1.011l-.08-.364c-.162-.688.323-1.376 1.01-1.537.688-.162 1.376.323 1.537 1.011l.081.364c.162.687-.323 1.375-1.01 1.537a.997.997 0 01-.486 0zm-1.011-5.824c-.526-.081-.971-.526-1.052-1.092l-.04-.364c-.081-.688.404-1.376 1.092-1.457.728-.08 1.375.405 1.456 1.093l.04.364c.122.687-.404 1.375-1.092 1.456a.696.696 0 01-.404 0zm182.855 25.157c-.121 0-.202-.041-.323-.081-.647-.283-.931-1.052-.647-1.699l.161-.323c.284-.647 1.052-.971 1.699-.647.647.283.971 1.051.647 1.698l-.162.324a1.301 1.301 0 01-1.375.728zM97.234 132.379c-.567-.081-1.012-.566-1.093-1.173l-.04-.364c-.04-.728.485-1.335 1.173-1.375.728-.041 1.335.485 1.375 1.173l.04.364c.041.728-.485 1.334-1.172 1.375-.081.04-.203 0-.283 0zM282.92 157.9a.565.565 0 01-.242-.081 1.288 1.288 0 01-.769-1.658l.122-.323c.242-.688.97-1.012 1.658-.769.687.243 1.011.971.768 1.658l-.121.364a1.22 1.22 0 01-1.416.809zM96.95 126.474a1.338 1.338 0 01-1.092-1.254v-.364c0-.728.567-1.294 1.295-1.294s1.294.566 1.294 1.294v.364c0 .728-.566 1.294-1.254 1.335a.568.568 0 00-.243-.081zm187.871 25.845c-.04 0-.121-.041-.161-.041-.688-.202-1.092-.93-.85-1.618l.122-.364a1.31 1.31 0 011.617-.889 1.31 1.31 0 01.89 1.617l-.121.365c-.243.647-.89 1.051-1.497.93zm-187.83-31.75a1.346 1.346 0 01-1.092-1.335v-.364a1.268 1.268 0 011.335-1.213c.728.04 1.253.647 1.213 1.334v.364a1.33 1.33 0 01-1.335 1.254c0-.04-.04-.04-.121-.04zm189.367 26.047h-.081c-.687-.162-1.132-.849-.97-1.537l.081-.364c.161-.688.849-1.133 1.537-.971.687.162 1.132.85.97 1.537l-.081.364c-.161.647-.809 1.092-1.456.971zM97.436 114.664a1.265 1.265 0 01-1.052-1.416l.04-.364a1.273 1.273 0 011.416-1.132c.688.08 1.214.728 1.133 1.415l-.04.364a1.274 1.274 0 01-1.416 1.133h-.081zm190.095 26.168c-.04 0-.04 0 0 0a1.283 1.283 0 01-1.051-1.496l.08-.364a1.294 1.294 0 012.549.445l-.081.364a1.373 1.373 0 01-1.497 1.051zM98.245 108.799a1.292 1.292 0 01-1.052-1.496l.04-.203.081-.364a1.292 1.292 0 011.497-1.051 1.314 1.314 0 011.051 1.496l-.08.364-.04.202a1.284 1.284 0 01-1.497 1.052zm190.095 26.168a1.264 1.264 0 01-1.051-1.415l.04-.364a1.274 1.274 0 011.416-1.133 1.273 1.273 0 011.132 1.416l-.04.364a1.273 1.273 0 01-1.416 1.132h-.081zm.445-5.905a1.344 1.344 0 01-1.092-1.334v-.364a1.33 1.33 0 011.335-1.254c.687.04 1.254.647 1.254 1.335v.364a1.27 1.27 0 01-1.335 1.213c-.041.081-.081.04-.162.04zm.121-5.905a1.338 1.338 0 01-1.092-1.254v-.364c0-.728.567-1.294 1.254-1.334.728 0 1.294.566 1.335 1.254v.364c0 .728-.566 1.294-1.294 1.294-.041.081-.122.04-.203.04zm-.283-5.905c-.566-.081-1.011-.566-1.092-1.173l-.04-.364c-.041-.728.485-1.334 1.173-1.375.728-.04 1.334.485 1.375 1.173l.04.364c.041.728-.485 1.335-1.173 1.375-.081.041-.161.041-.283 0zm-.606-5.864c-.526-.081-.971-.526-1.052-1.092l-.04-.365c-.122-.687.404-1.375 1.092-1.456.687-.121 1.375.405 1.456 1.092l.04.364c.081.729-.404 1.376-1.092 1.457h-.404zm-1.012-5.825c-.525-.081-.93-.485-1.051-1.011l-.081-.364c-.162-.687.324-1.375 1.011-1.537.688-.162 1.375.324 1.537 1.011l.081.364a1.35 1.35 0 01-1.011 1.537h-.486zm-1.334-5.743c-.486-.08-.89-.445-1.052-.93l-.081-.364a1.247 1.247 0 01.93-1.578 1.247 1.247 0 011.578.93l.081.365c.202.687-.243 1.415-.931 1.577-.161 0-.364.04-.525 0zm-1.699-5.662a1.348 1.348 0 01-1.011-.85l-.122-.364a1.295 1.295 0 01.809-1.658 1.295 1.295 0 011.659.809l.121.364c.243.688-.121 1.415-.809 1.618a.937.937 0 01-.647.08zm-2.063-5.541a1.239 1.239 0 01-.97-.81l-.122-.323c-.283-.647.041-1.416.688-1.699.647-.283 1.415.04 1.698.688l.162.364c.283.647-.04 1.415-.728 1.699-.242.121-.485.121-.728.08zm-2.386-5.38a1.36 1.36 0 01-.971-.728l-.162-.323c-.323-.648-.04-1.416.607-1.74.647-.323 1.416-.04 1.739.607l.162.324c.324.647.041 1.415-.607 1.739-.242.121-.485.162-.768.121zm-2.71-5.258c-.364-.08-.728-.283-.93-.647l-.162-.323c-.364-.607-.121-1.416.485-1.78.607-.364 1.416-.121 1.78.485l.202.324c.364.606.122 1.416-.485 1.78a1.407 1.407 0 01-.89.161zm-3.033-5.096a1.202 1.202 0 01-.85-.566l-.202-.324a1.263 1.263 0 01.404-1.78 1.263 1.263 0 011.78.405l.202.283c.405.607.203 1.416-.364 1.82-.323.162-.647.203-.97.162zm-3.317-4.853c-.324-.04-.607-.243-.849-.526l-.203-.283c-.404-.567-.283-1.376.284-1.82.566-.405 1.375-.283 1.82.283l.202.283c.404.566.283 1.375-.283 1.82a1.407 1.407 0 01-.971.243zm-3.64-4.692a1.263 1.263 0 01-.769-.445l-.242-.283c-.445-.566-.364-1.375.162-1.82.566-.445 1.375-.364 1.82.162l.242.283c.445.566.364 1.375-.161 1.82a1.133 1.133 0 01-1.052.283zm-3.883-4.409a1.11 1.11 0 01-.728-.404l-.243-.283c-.485-.526-.485-1.335.041-1.82.526-.486 1.335-.486 1.82.04l.243.283a1.319 1.319 0 01-.041 1.82c-.323.324-.728.405-1.092.364z" fill="#fff"/><path d="M99.377 102.166l-5.258 6.35 8.13 1.375-2.872-7.725zM277.987 166.839l6.957-4.449-7.321-3.802.364 8.251z" fill="#fff"/><path d="M49.507 188.922c-10.193 0-18.767 6.836-21.437 16.138h42.833c-2.63-9.302-11.204-16.138-21.396-16.138z" fill="#2F7D80"/><path d="M107.951 188.922c-10.192 0-18.767 6.836-21.436 16.138h42.872c-2.669-9.302-11.244-16.138-21.436-16.138z" fill="#006184"/><path d="M80.124 182.006c-14.52 0-26.816 9.748-30.618 23.054h61.195c-3.802-13.306-16.057-23.054-30.577-23.054z" fill="#006184"/><path d="M36.525 42.63c-16.502 0-30.456 11.082-34.784 26.208h69.527C66.98 53.712 53.027 42.63 36.525 42.63zM131.369 42.63c-16.501 0-30.455 11.082-34.783 26.208h69.526c-4.287-15.126-18.241-26.209-34.743-26.209z" fill="#CFF8FF"/><path d="M86.192 31.426c-23.58 0-43.48 15.815-49.668 37.453h99.335c-6.188-21.638-26.088-37.453-49.668-37.453z" fill="#CFF8FF"/><path d="M241.545 107.464c-16.461 0-30.334 11.042-34.662 26.128h69.324c-4.287-15.086-18.201-26.128-34.662-26.128z" fill="#D0F1F2"/><path d="M336.067 107.464c-16.462 0-30.335 11.042-34.663 26.128h69.284c-4.287-15.086-18.16-26.128-34.621-26.128z" fill="#CFF8FF"/><path d="M291.05 96.26c-23.499 0-43.358 15.775-49.505 37.292h98.971c-6.148-21.517-25.967-37.291-49.466-37.291z" fill="#CFF8FF"/><path d="M45.463 64.106c-7.644 0-14.115 5.137-16.138 12.174h32.276a16.743 16.743 0 00-16.138-12.174zM89.468 64.106c-7.644 0-14.115 5.137-16.138 12.174h32.276a16.743 16.743 0 00-16.138-12.174z" fill="#7DE3F4"/><path d="M68.517 58.889c-10.96 0-20.182 7.36-23.054 17.35h46.068C88.7 66.25 79.478 58.89 68.517 58.89z" fill="#7DE3F4"/><path d="M191.554 42.226c-22.933 0-43.641 9.545-58.323 24.914-13.873 14.48-22.367 34.137-22.367 55.775 0 21.962 8.777 41.862 23.014 56.422 14.641 14.965 35.067 24.268 57.676 24.268h.121V42.225h-.121z" fill="#01496E"/><path d="M272.243 122.915c0-21.639-8.534-41.296-22.367-55.775-14.682-15.33-35.309-24.874-58.202-24.915v161.379c22.569-.04 42.954-9.343 57.555-24.267 14.237-14.52 23.014-34.46 23.014-56.422z" fill="#003057"/><path d="M274.265 122.915c0-21.234-8.048-40.608-21.234-55.29l.081-.04-1.779-1.86c-7.645-7.968-16.624-14.278-26.735-18.687a81.26 81.26 0 00-30.941-6.835c-.728 0-1.416-.04-2.144-.04-.728 0-1.415 0-2.143.04-10.719.283-21.113 2.548-30.942 6.835-10.071 4.409-19.09 10.678-26.734 18.686l-1.78 1.86.081.041c-13.185 14.682-21.234 34.056-21.234 55.29 0 21.557 8.291 41.174 21.841 55.936l-.081.041 1.82 1.86c15.693 16.057 36.684 24.875 59.132 24.875 22.447 0 43.439-8.858 59.132-24.875l1.82-1.86-.081-.041c13.63-14.722 21.921-34.379 21.921-55.936zm-35.471-2.022c-.202-15.653-2.871-30.618-7.684-43.44 6.633-2.062 12.78-4.65 18.322-7.725 12.457 13.55 20.222 31.467 20.748 51.165h-31.386zm-9.585 52.175c5.986 1.82 11.567 4.044 16.623 6.754a78.767 78.767 0 01-36.24 19.697c5.825-4.166 11.163-10.435 15.693-18.524 1.416-2.508 2.71-5.177 3.924-7.927zm-7.442 5.945c-8.17 14.561-18.889 22.609-30.213 22.609-11.325 0-22.043-8.008-30.213-22.609-1.254-2.224-2.427-4.611-3.519-7.037 10.394-2.751 21.841-4.166 33.732-4.166 11.891 0 23.337 1.456 33.731 4.166a95.554 95.554 0 01-3.518 7.037zm-63.986 1.982c4.53 8.089 9.869 14.318 15.693 18.524a78.768 78.768 0 01-36.239-19.697c5.056-2.669 10.637-4.934 16.623-6.754 1.213 2.75 2.508 5.419 3.923 7.927zm33.773-17.27c-12.417 0-24.389 1.537-35.31 4.449-4.934-12.619-7.684-27.503-7.887-43.196h86.352c-.202 15.693-2.952 30.577-7.887 43.196-10.88-2.912-22.852-4.449-35.268-4.449zm-43.197-42.832c.203-15.289 2.832-29.85 7.523-42.307 10.961 2.993 23.054 4.53 35.633 4.53 12.579 0 24.672-1.577 35.633-4.53 4.692 12.417 7.321 26.978 7.523 42.307h-86.312zm43.197-76.645c11.324 0 22.043 8.048 30.213 22.609 1.415 2.508 2.709 5.177 3.882 7.927-10.475 2.791-22.083 4.287-34.095 4.287-12.053 0-23.621-1.456-34.096-4.287 1.173-2.79 2.507-5.42 3.883-7.927 8.17-14.56 18.847-22.569 30.213-22.61-.041 0-.041 0 0 0zm38.019 29.444a93.899 93.899 0 00-4.288-8.817c-4.53-8.09-9.868-14.318-15.693-18.524 14.156 3.316 26.856 10.516 36.887 20.344-5.096 2.79-10.799 5.137-16.906 6.997zm-56.099-27.341c-5.824 4.166-11.163 10.435-15.693 18.524-1.577 2.79-2.993 5.743-4.287 8.817-6.107-1.86-11.77-4.206-16.906-6.997 10.071-9.828 22.73-16.987 36.886-20.344zm-21.476 31.103c-4.813 12.821-7.483 27.746-7.685 43.439h-31.386c.485-19.698 8.291-37.615 20.749-51.165 5.5 3.074 11.688 5.703 18.322 7.726zm-7.726 47.524c.203 16.016 3.034 31.305 8.049 44.328-6.512 1.982-12.579 4.49-18.079 7.483-12.821-13.631-20.87-31.791-21.356-51.811h31.386zm86.474 44.328c5.015-13.023 7.806-28.312 8.048-44.328h31.386c-.526 20.02-8.534 38.221-21.355 51.811-5.46-2.993-11.568-5.501-18.079-7.483z" fill="#01496E"/><path d="M191.675 201.581h-.122c-11.324 0-22.042-8.008-30.213-22.609-1.253-2.225-2.426-4.611-3.518-7.038 10.394-2.75 21.84-4.166 33.731-4.166h.122v-4.085h-.122c-12.416 0-24.388 1.537-35.309 4.449-4.934-12.619-7.684-27.503-7.887-43.196h43.318v-4.085h-43.318c.203-15.288 2.832-29.849 7.523-42.306 10.961 2.993 23.054 4.53 35.633 4.53h.121V78.99h-.121c-12.053 0-23.62-1.456-34.096-4.287 1.173-2.791 2.508-5.42 3.883-7.928 8.17-14.56 18.888-22.569 30.173-22.61h.161v-3.963h-.121c-.728 0-1.416 0-2.144.04-10.718.284-21.112 2.549-30.941 6.836-10.071 4.408-19.09 10.678-26.734 18.686l-1.78 1.86.081.04c-13.185 14.683-21.234 34.056-21.234 55.29 0 21.558 8.291 41.174 21.841 55.937l-.081.04 1.82 1.861c15.693 16.057 36.684 24.874 59.132 24.874h.121v-4.085h.081zM173.474 46.35c-5.824 4.166-11.163 10.435-15.693 18.524-1.577 2.79-2.993 5.743-4.287 8.817-6.107-1.86-11.77-4.206-16.906-6.997 10.071-9.828 22.73-16.987 36.886-20.344zm-39.839 23.378c5.541 3.074 11.689 5.662 18.322 7.725-4.813 12.821-7.482 27.746-7.685 43.439h-31.386c.526-19.697 8.292-37.615 20.749-51.164zm-20.749 55.249h31.386c.203 16.016 3.034 31.305 8.049 44.328-6.512 1.982-12.579 4.49-18.079 7.483-12.781-13.63-20.83-31.791-21.356-51.811zm24.349 54.844c5.055-2.669 10.637-4.934 16.623-6.754 1.213 2.75 2.508 5.42 3.923 7.927 4.53 8.089 9.869 14.318 15.693 18.524-13.832-3.276-26.249-10.192-36.239-19.697z" fill="#006184"/><path d="M177.64 71.589l1.375 25.319 5.379-4.853c2.306 2.184 4.732 4.206 7.28 6.147v-24.47L177.64 71.59z" fill="#F68D2E"/><path d="M272 103.582c-27.261 4.368-55.087-4.206-75.229-22.771l5.945-5.42-11.082-1.699v24.47c9.181 7.038 19.657 12.538 30.779 17.068 15.208 6.188 36.28 6.714 51.811 5.177-.162-5.703-.89-11.324-2.224-16.825zM186.012 128.86l-2.306 7.685c-28.312-11.285-49.586-36.523-55.249-67.18-4.934 5.824-9.019 12.214-12.134 19.009 5.218 14.843 13.752 28.474 25.198 39.92 10.799 10.799 23.54 19.009 37.372 24.267l-2.063 6.917 14.844-6.148v-16.219l-5.662-8.251z" fill="#FBA325"/><path d="M191.674 137.192v16.219l8.615-3.559-8.615-12.66z" fill="#F68D2E"/><path d="M218.288 154.099a4.928 4.928 0 014.935-4.934 4.902 4.902 0 014.934 4.934c0 2.71-4.934 7.685-4.934 7.685s-4.935-4.935-4.935-7.685z" fill="#3FCDE3"/><path d="M225.742 154.81a2.75 2.75 0 10-5.09-2.086 2.75 2.75 0 005.09 2.086z" fill="#003057"/><path d="M195.476 180.267a4.928 4.928 0 014.934-4.934 4.928 4.928 0 014.934 4.934c0 2.71-4.934 7.685-4.934 7.685s-4.934-4.975-4.934-7.685z" fill="#7DE3F4"/><path d="M200.593 182.68a2.75 2.75 0 10-.458-5.482 2.75 2.75 0 00.458 5.482z" fill="#003057"/><path d="M206.882 141.52a4.928 4.928 0 014.934-4.935 4.93 4.93 0 014.935 4.935c0 2.71-4.935 7.685-4.935 7.685s-4.934-4.975-4.934-7.685z" fill="#7DE3F4"/><path d="M212.691 143.805a2.752 2.752 0 10-1.722-5.223 2.752 2.752 0 001.722 5.223z" fill="#003057"/><path d="M241.302 92.54a4.928 4.928 0 014.934-4.934 4.903 4.903 0 014.935 4.934c0 2.75-4.935 7.685-4.935 7.685s-4.934-4.975-4.934-7.685z" fill="#3FCDE3"/><path d="M246.197 94.927a2.75 2.75 0 100-5.5 2.75 2.75 0 000 5.5z" fill="#003057"/><path d="M125.99 135.817a4.928 4.928 0 014.935-4.934 4.902 4.902 0 014.934 4.934c0 2.71-4.934 7.685-4.934 7.685s-4.935-4.975-4.935-7.685z" fill="#3FCDE3"/><path d="M133.465 136.524a2.75 2.75 0 10-5.082-2.105 2.75 2.75 0 005.082 2.105z" fill="#01496E"/><path d="M252.102 111.307a4.928 4.928 0 014.934-4.934 4.902 4.902 0 014.934 4.934c0 2.75-4.934 7.685-4.934 7.685s-4.934-4.975-4.934-7.685z" fill="#00183A"/><path d="M257.037 113.734a2.75 2.75 0 10-.001-5.501 2.75 2.75 0 00.001 5.501z" fill="#FBA325"/><path d="M192.604 55.452c-4.733 0-8.737 3.195-9.991 7.523h19.981c-1.214-4.369-5.218-7.523-9.99-7.523zM219.864 55.452c-4.732 0-8.736 3.195-9.99 7.523h19.98a10.385 10.385 0 00-9.99-7.523z" fill="#fff"/><path d="M206.881 52.216a14.825 14.825 0 00-14.277 10.758h28.514a14.741 14.741 0 00-14.237-10.758zM156.691 53.105c-3.074 0-5.663 2.063-6.431 4.854h12.902a6.745 6.745 0 00-6.471-4.854zM174.286 53.105c-3.074 0-5.663 2.063-6.431 4.854h12.902a6.746 6.746 0 00-6.471-4.854z" fill="#fff"/><path d="M165.912 51.043c-4.368 0-8.049 2.953-9.222 6.957h18.444c-1.173-4.005-4.854-6.957-9.222-6.957zM261.688 219.298h.162c.485-.081.769-.566.688-1.011l-1.254-6.108c-.081-.485-.566-.768-1.011-.687-.486.081-.769.566-.688 1.011l1.254 6.107c.121.405.445.688.849.688z" fill="#fff"/><path d="M262.779 218.165s.526 2.224 0 2.305c-.526.081-8.251.283-8.291-.081-.162-1.213 6.147-2.346 6.794-2.224.607.121 1.456-.324 1.497 0z" fill="#1A1C2E"/><path d="M226.863 162.916s-4.489-.081-5.136-.971c-.688-.89 3.559-1.294 5.864.122l-.728.849z" fill="#fff"/><path d="M227.024 163.32c-.242-.687-.525-1.375-.768-2.103 12.012-4.57 11.689-3.883 18.888-15.248 1.092-1.739 1.739-.809 2.791 0 .243-.162.243-.162 0 0 1.052.809.728 1.416-.202 2.791-5.946 9.019-9.909 12.659-20.709 14.56z" fill="#0181A1"/><path d="M246.601 219.298h.162c.486-.081.769-.566.688-1.011l-1.254-6.108c-.081-.485-.566-.768-1.011-.687-.486.081-.769.566-.688 1.011l1.254 6.107a.866.866 0 00.849.688z" fill="#fff"/><path d="M244.701 215.738c.93-.04 1.86-.121 2.75-.242-2.75-14.682-4.813-34.42 2.508-48.131-2.225-1.092-4.49-2.144-6.714-3.236-5.379 11.972-.809 38.99 1.456 51.609z" fill="#00183A"/><path d="M259.908 215.334c.931-.284 1.82-.567 2.71-.931-6.876-13.428-11.891-34.581-10.718-49.869a461.118 461.118 0 00-7.523-.284c.971 15.329 9.586 37.292 15.531 51.084z" fill="#00183A"/><path d="M247.693 218.165s.526 2.224 0 2.305c-.526.081-8.251.283-8.291-.081-.162-1.213 6.147-2.346 6.795-2.224.566.121 1.415-.324 1.496 0z" fill="#1A1C2E"/><path d="M241.223 169.145c1.456-.485 4.489.283 5.945 0 2.144-.445 3.196-.283 5.339-.162.283-6.633.041-13.59.526-20.142.121-1.375.162-2.184-.081-3.195-.323-1.375-1.052-2.346-1.982-2.831-1.132-.607-2.629-.567-4.085.161a1.905 1.905 0 00-.647.405c-.89.687-1.699 1.982-1.82 4.449-.364 6.188-2.022 14.884-3.195 21.315z" fill="#0181A1"/><path d="M259.18 121.135s-1.376-4.489-.728-5.46c.647-.971 2.467 3.155 1.779 5.905l-1.051-.445z" fill="#fff"/><path d="M258.574 120.65c.728 0 1.415.04 2.143.081-.768 12.093-.93 15.693-6.794 26.29-.89 1.617-1.335 1.537-2.629.606-.243.162-.243.162 0 0-1.295-.93-1.133-1.294-.122-2.912 6.512-10.637 5.137-12.093 7.402-24.065z" fill="#0181A1"/><path d="M246.197 143.381l.122 4.166.162 5.217 2.184-4.853 2.265-5.096c-1.133-.607-2.629-.567-4.085.161-.203.122-.405.243-.648.405z" fill="#A6EEFA"/><path d="M250.645 138.769c-1.415 2.184-4.125 2.993-5.46 2.103-1.335-.889-.849-3.073.607-5.258 1.415-2.184 3.235-2.629 4.61-1.739 1.295.89 1.659 2.71.243 4.894z" fill="#fff"/><path d="M251.131 140.185c-.323.526-1.253.849-1.617.607-.364-.243-.203-.728.121-1.214.323-.525.93-.809 1.335-.566.323.243.485.647.161 1.173z" fill="#fff"/><path d="M250.322 138.406l-2.751-.283c-.04.364-.323 3.963-.202 5.298.081.404.768.607 1.537.445.688-.162 1.132-.566 1.173-.93-.081-.809.081-3.196.243-4.53z" fill="#fff"/><path d="M249.27 139.538c-.404-.445-.768-.041-1.739.485-.971.566-2.71.405-2.831-1.86-.081-1.456-.89.93-.89.93-.162 1.173.162 1.901.971 2.427 1.092.728 2.871.606 4.408-.324.243-.566.364-1.375.081-1.658z" fill="#1A1C2E"/><path d="M244.62 138.082s.04 0 .081.04c.485.243 2.669 1.497 2.871 2.387.243 1.011-1.172-.405-1.577-1.052-.445-.647-.93-.566-1.416-.687-.485-.122-.687-.728.041-.688zM251.858 137.597s.445-1.699-.324-2.953c-.768-1.213-2.952-2.507-4.692-.849 0 0-1.132 1.294.526 2.508 1.658 1.213 1.861.081 2.265 1.456.405 1.375 1.537 1.132 1.578 1.456l.647-1.618z" fill="#1A1C2E"/><path d="M246.318 147.546l.161 5.218 2.184-4.854-.08-3.155h-.971l-1.294 2.791z" fill="#FBA325"/><path d="M147.266 69.728a3.224 3.224 0 00-.081 4.49l6.309 6.754h9.586L151.836 69.73c-1.254-1.254-3.276-1.254-4.57 0z" fill="#A2DBE4"/><path d="M173.435 81.7c0 .971-.405 1.86-1.052 2.508a3.548 3.548 0 01-2.507 1.052H144.88a2.797 2.797 0 01-2.103-.971l-4.166-4.894a1.763 1.763 0 01-.121-2.144l2.022-3.074c.647-1.01 2.103-1.092 2.872-.161l3.518 4.125h23.014c1.294 0 2.467.688 3.074 1.74.283.444.445.97.485 1.496-.04.121-.04.202-.04.323z" fill="#CFF8FF"/><path d="M147.266 93.834a3.224 3.224 0 01-.081-4.49l6.31-6.754h9.586l-11.204 11.244a3.296 3.296 0 01-4.611 0z" fill="#A2DBE4"/><path d="M167.53 81.377h-18.565a.725.725 0 01-.728-.728c0-.404.324-.728.728-.728h18.565c.405 0 .728.323.728.728a.725.725 0 01-.728.728zM173.435 81.377h-3.276a.768.768 0 01-.768-.769.77.77 0 01.202-.525.77.77 0 01.526-.203h2.791c.283.445.444.971.525 1.497z" fill="#89C5CE"/><path d="M176.186 45.744s4.206.486 4.772 1.375c.566.89-3.478.89-5.541-.647l.769-.728z" fill="#fff"/><path d="M176.427 45.299c-.081.687-.121 1.375-.243 2.022-10.758-1.618-15.288-3.357-18.686-14.035-.526-1.617.081-1.9 1.416-2.022 0-.283 0-.283 0 0 1.294-.121 1.537.364 1.982 1.78 2.871 9.343 6.471 9.95 15.531 12.255z" fill="#01B6D1"/><path d="M157.256 25.602c-1.456-1.173-4.045-1.416-5.622-.283-1.578 1.132-1.497 3.518-.405 5.015 1.092 1.496 4.409 2.427 6.917.89 1.658-1.011.97-4.126-.89-5.622z" fill="#1A1C2E"/><path d="M158.428 24.308c-1.092-.89-2.952-1.133-4.085-.284-1.132.81-1.051 2.549-.202 3.68.809 1.133 3.721 1.578 4.853.77 1.092-.85.769-3.075-.566-4.166z" fill="#1A1C2E"/><path d="M158.468 47.078c.445-.202.89-.404 1.376-.566-.122-2.427-.122-4.449.161-5.096 1.861-3.64 1.052-3.276.89-5.38-.162-2.102-.202-4.125-1.132-5.055l-.041-.04c-.849-.769-2.062-.93-3.114-.486-.769.324-.769-.242-2.872 3.195-2.062 3.398-3.357 11.285-3.033 17.311 2.548-1.415 5.096-2.71 7.765-3.883z" fill="#0181A1"/><path d="M160.167 20.182c-.809-.08-1.78.485-2.063 1.254-.283.809.324 1.618 1.052 1.9.768.284 2.305-.525 2.588-1.293.283-.769-.566-1.78-1.577-1.861z" fill="#1A1C2E"/><path d="M156.689 25.763c1.052 2.265 3.478 3.357 4.854 2.71 1.375-.647 1.173-2.79.121-5.015-1.052-2.265-2.71-2.872-4.085-2.225-1.375.607-1.941 2.265-.89 4.53z" fill="#fff"/><path d="M156.043 27.017c.243.526 1.092.971 1.456.769.364-.202.283-.647.04-1.173-.242-.526-.768-.89-1.173-.688-.404.162-.566.567-.323 1.092z" fill="#fff"/><path d="M155.679 24.469s-.202-1.658.688-2.71c.889-1.051 3.114-1.982 4.489-.202 0 0 .89 1.335-.849 2.265-1.739.93-1.78-.162-2.306 1.092-.525 1.213-1.577.89-1.698 1.132l-.324-1.577z" fill="#1A1C2E"/><path d="M157.458 26.087l2.589.243c-.04.364-.404 3.72-.768 4.974-.162.364-.85.445-1.497.122-.607-.283-.971-.728-.93-1.092.283-.728.526-2.993.606-4.247z" fill="#fff"/><path d="M167.73 53.226s4.45.364 5.056 1.294c.647.93-3.64 1.092-5.824-.485l.768-.809z" fill="#E6E6E6"/><path d="M168.824 53.146c-.162.728-.243 1.294-.405 2.103-13.468-4.004-14.722-7.968-14.398-21.315.04-2.022 3.559-2.063 3.154 1.375-1.456 11.932.405 12.943 11.649 17.837z" fill="#01B6D1"/><path d="M175.334 24.106s2.508-3.68 2.185-4.732c-.324-1.052-3.115 2.184-3.236 4.853l1.051-.12z" fill="#1A1C2E"/><path d="M175.821 24.308c.162-.606-1.658-.687-2.063-.808-4.975 15.612 3.479 20.99 15.491 10.394 1.82-1.618.849-1.618-.283-2.548.202-.283.202-.283 0 0-1.133-.93-1.416-.809-2.872.566-9.585 9.222-13.509 3.924-10.273-7.604z" fill="#01B6D1"/><path d="M193.578 24.794c-.971 2.427-3.479 3.68-4.935 3.074-1.496-.607-1.375-2.831-.404-5.258s2.669-3.155 4.166-2.548c1.456.606 2.143 2.345 1.173 4.732z" fill="#1A1C2E"/><path d="M194.547 23.419s.121-1.74-.85-2.791c-.97-1.052-3.357-1.901-4.732.04 0 0-.849 1.456 1.011 2.346 1.861.89 1.861-.243 2.467 1.011.648 1.254 1.699.81 1.82 1.092l.284-1.698z" fill="#3B3E54"/><path d="M193.132 24.874l-2.71-.283c-.041.364-.324 3.924-.202 5.258.08.405.768.607 1.537.405.647-.162 1.132-.567 1.172-.93-.08-.769.081-3.115.203-4.45z" fill="#1A1C2E"/><path d="M194.305 26.088c-.243.566-1.092 1.051-1.496.89-.405-.162-.324-.648-.081-1.214.242-.566.768-.97 1.173-.768.404.121.647.526.404 1.092z" fill="#1A1C2E"/><path d="M189.41 40.244c.728 0 1.416-.04 2.144-.04h.97c.243-1.214.648-2.468 1.214-3.883.526-1.335.768-1.659.89-2.67.445-3.074-2.063-4.61-4.813-4.166-.162.04-2.548-.08-4.045 4.126-.93 2.629-1.577 4.813-1.982 6.956a85.684 85.684 0 015.622-.323z" fill="#0181A1"/><path d="M194.952 57.434s-2.306 4.044-1.901 5.136c.404 1.092 3.074-2.507 3.033-5.339l-1.132.203z" fill="#1A1C2E"/><path d="M194.507 57.757c.688.243 1.335.485 2.023.728 3.842-9.1 3.801-18.362-1.659-26.654-.849-1.253-1.698-1.982-2.952-.606-.647.687-.607 1.82.364 3.114 6.107 8.413 4.53 13.67 2.224 23.418z" fill="#01B6D1"/><path d="M126.476 154.826c0-5.177-4.206-9.343-9.343-9.343-5.177 0-9.343 4.207-9.343 9.343 0 4.247 2.831 7.806 6.674 8.979l2.669 6.836 2.67-6.836c3.882-1.132 6.673-4.732 6.673-8.979z" fill="#fff"/><path d="M110.459 154.341c0-.97.769-1.739 1.739-1.739.971 0 1.739.769 1.739 1.739 0 .971-.768 1.739-1.739 1.739-.97 0-1.739-.809-1.739-1.739zM115.393 154.341c0-.971.769-1.739 1.74-1.739.97 0 1.739.768 1.739 1.739 0 .97-.769 1.739-1.739 1.739-.971 0-1.74-.809-1.74-1.739zM120.328 154.341c0-.971.768-1.739 1.739-1.739.971 0 1.739.768 1.739 1.739 0 .97-.768 1.739-1.739 1.739a1.752 1.752 0 01-1.739-1.739z" fill="#01B6D1"/><path d="M102.452 177.881c0-5.177-4.207-9.343-9.343-9.343-5.177 0-9.343 4.206-9.343 9.343 0 4.247 2.831 7.806 6.673 8.979l2.67 6.835 2.67-6.835c3.842-1.132 6.673-4.732 6.673-8.979z" fill="#fff"/><path d="M86.436 177.395c0-.97.768-1.739 1.739-1.739.97 0 1.739.769 1.739 1.739 0 .971-.768 1.74-1.74 1.74-.97 0-1.738-.809-1.738-1.74zM91.369 177.395c0-.97.769-1.739 1.74-1.739.97 0 1.738.769 1.738 1.739 0 .971-.768 1.74-1.739 1.74-.97 0-1.739-.809-1.739-1.74zM98.043 179.135a1.74 1.74 0 100-3.48 1.74 1.74 0 000 3.48z" fill="#01B6D1"/></g><defs><clipPath id="clip0"><path fill="#fff" d="M0 0h380v254H0z"/></clipPath></defs></svg>