<?xml version="1.0" encoding="utf-8"?>
<!-- Generator: Adobe Illustrator 24.0.3, SVG Export Plug-In . SVG Version: 6.00 Build 0)  -->
<svg version="1.1" id="Layer_1" xmlns="http://www.w3.org/2000/svg" xmlns:xlink="http://www.w3.org/1999/xlink" x="0px" y="0px"
	 viewBox="0 0 207 117" style="enable-background:new 0 0 207 117;" xml:space="preserve">
<style type="text/css">
	.st0{fill:#DDFAFB;}
	.st1{fill:none;stroke:#006184;stroke-width:2;stroke-linecap:round;stroke-linejoin:round;stroke-miterlimit:10;}
	.st2{fill:#01B6D1;}
	.st3{fill:#7DE3F4;}
	.st4{fill:#006184;}
	.st5{fill:#FF7975;}
	.st6{fill:#212225;}
	.st7{fill:#E63939;}
	.st8{fill:#3B3E54;}
	.st9{fill:#F68D2E;}
	.st10{fill:#FFFFFF;}
	.st11{fill:#3A3D40;}
	.st12{fill:#F9FCF7;}
	.st13{fill:#FFD072;}
	.st14{fill:#1A1C2E;}
</style>
<path class="st0" d="M155.8,27.5c-4.4,0-8.6,0.6-12.6,1.8C132.9,15.7,116.7,7,98.6,7c-26.9,0-49.4,19.2-55,44.8
	c-0.7-0.2-1.5-0.2-2.3-0.2c-6.1,0-11.1,5.1-11.1,11.3c0,0.8,0.1,1.5,0.2,2.3C18.2,68.3,9.2,79.6,9.2,93c0,5.4,1.5,10.4,4,14.8h175.6
	c8.3-8.5,13.4-20.2,13.4-33.1C202.1,48.6,181.4,27.5,155.8,27.5z"/>
<path class="st1" d="M184.4,106.4V69.8"/>
<path class="st1" d="M184.4,96.7l-4.3-4.3"/>
<path class="st1" d="M184.4,92.4l4.5-4.5"/>
<path class="st1" d="M184.4,80.5l2.8-2.8"/>
<path class="st2" d="M184.4,56.6v19.9c0,0-4.1-4.5-4.1-9.9C180.3,61.1,184.4,56.6,184.4,56.6z"/>
<path class="st3" d="M188.6,66.5c0,5.5-4.1,9.9-4.1,9.9V56.6C184.4,56.6,188.6,61.1,188.6,66.5z"/>
<path class="st2" d="M188,88.9l14-14c0,0-0.2,6.1-4.1,9.9C194,88.7,188,88.9,188,88.9z"/>
<path class="st3" d="M192,79c3.9-3.9,9.9-4.1,9.9-4.1l-14,14C188,88.9,188.2,82.8,192,79z"/>
<path class="st1" d="M184.1,85.1L182,83"/>
<path class="st2" d="M168.6,68.9l14,14c0,0-6.1-0.2-9.9-4.1C168.8,74.9,168.6,68.9,168.6,68.9z"/>
<path class="st3" d="M178.5,72.9c3.9,3.9,4.1,9.9,4.1,9.9l-14-14C168.6,68.9,174.6,69.1,178.5,72.9z"/>
<path class="st2" d="M172.2,84.1l10.4,10.4c0,0-4.5-0.2-7.3-3S172.2,84.1,172.2,84.1z"/>
<path class="st3" d="M179.5,87.1c2.9,2.9,3,7.3,3,7.3l-10.4-10.4C172.2,84.1,176.7,84.3,179.5,87.1z"/>
<path class="st3" d="M62.5,84.9h21V7L73,0L62.5,7V84.9z"/>
<path class="st4" d="M59.3,11.3h27.3v73.6H59.3V11.3z"/>
<path class="st3" d="M82,14.3h2.5v4.3H82V14.3z"/>
<path class="st3" d="M77.9,14.3h2.5v4.3h-2.5V14.3z"/>
<path class="st3" d="M73.8,14.3h2.5v4.3h-2.5V14.3z"/>
<path class="st3" d="M69.7,14.3h2.5v4.3h-2.5V14.3z"/>
<path class="st3" d="M65.5,14.3h2.5v4.3h-2.5V14.3z"/>
<path class="st3" d="M61.4,14.3h2.5v4.3h-2.5V14.3z"/>
<path class="st3" d="M82,20.4h2.5v4.3H82V20.4z"/>
<path class="st3" d="M77.9,20.4h2.5v4.3h-2.5V20.4z"/>
<path class="st3" d="M73.8,20.4h2.5v4.3h-2.5V20.4z"/>
<path class="st3" d="M69.7,20.4h2.5v4.3h-2.5V20.4z"/>
<path class="st3" d="M65.5,20.4h2.5v4.3h-2.5V20.4z"/>
<path class="st3" d="M61.4,20.4h2.5v4.3h-2.5V20.4z"/>
<path class="st3" d="M82,26.5h2.5v4.3H82V26.5z"/>
<path class="st3" d="M77.9,26.5h2.5v4.3h-2.5V26.5z"/>
<path class="st3" d="M73.8,26.5h2.5v4.3h-2.5V26.5z"/>
<path class="st3" d="M69.7,26.5h2.5v4.3h-2.5V26.5z"/>
<path class="st3" d="M65.5,26.5h2.5v4.3h-2.5V26.5z"/>
<path class="st3" d="M61.4,26.5h2.5v4.3h-2.5V26.5z"/>
<path class="st3" d="M82,32.6h2.5v4.3H82V32.6z"/>
<path class="st3" d="M77.9,32.6h2.5v4.3h-2.5V32.6z"/>
<path class="st3" d="M73.8,32.6h2.5v4.3h-2.5V32.6z"/>
<path class="st3" d="M69.7,32.6h2.5v4.3h-2.5V32.6z"/>
<path class="st3" d="M65.5,32.6h2.5v4.3h-2.5V32.6z"/>
<path class="st3" d="M61.4,32.6h2.5v4.3h-2.5V32.6z"/>
<path class="st3" d="M82,38.7h2.5V43H82V38.7z"/>
<path class="st3" d="M77.9,38.7h2.5V43h-2.5V38.7z"/>
<path class="st3" d="M73.8,38.7h2.5V43h-2.5V38.7z"/>
<path class="st3" d="M69.7,38.7h2.5V43h-2.5V38.7z"/>
<path class="st3" d="M65.5,38.7h2.5V43h-2.5V38.7z"/>
<path class="st3" d="M61.4,38.7h2.5V43h-2.5V38.7z"/>
<path class="st3" d="M82,44.8h2.5v4.3H82V44.8z"/>
<path class="st3" d="M77.9,44.8h2.5v4.3h-2.5V44.8z"/>
<path class="st3" d="M73.8,44.8h2.5v4.3h-2.5V44.8z"/>
<path class="st3" d="M69.7,44.8h2.5v4.3h-2.5V44.8z"/>
<path class="st3" d="M65.5,44.8h2.5v4.3h-2.5V44.8z"/>
<path class="st3" d="M61.4,44.8h2.5v4.3h-2.5V44.8z"/>
<path class="st3" d="M82,50.9h2.5v4.3H82V50.9z"/>
<path class="st3" d="M77.9,50.9h2.5v4.3h-2.5V50.9z"/>
<path class="st3" d="M73.8,50.9h2.5v4.3h-2.5V50.9z"/>
<path class="st3" d="M69.7,50.9h2.5v4.3h-2.5V50.9z"/>
<path class="st3" d="M65.5,50.9h2.5v4.3h-2.5V50.9z"/>
<path class="st3" d="M61.4,50.9h2.5v4.3h-2.5V50.9z"/>
<path class="st3" d="M82,57h2.5v4.3H82V57z"/>
<path class="st3" d="M77.9,57h2.5v4.3h-2.5V57z"/>
<path class="st3" d="M73.8,57h2.5v4.3h-2.5V57z"/>
<path class="st3" d="M69.7,57h2.5v4.3h-2.5V57z"/>
<path class="st3" d="M65.5,57h2.5v4.3h-2.5V57z"/>
<path class="st3" d="M61.4,57h2.5v4.3h-2.5V57z"/>
<path class="st3" d="M82,63.1h2.5v4.3H82V63.1z"/>
<path class="st3" d="M77.9,63.1h2.5v4.3h-2.5V63.1z"/>
<path class="st3" d="M73.8,63.1h2.5v4.3h-2.5V63.1z"/>
<path class="st3" d="M69.7,63.1h2.5v4.3h-2.5V63.1z"/>
<path class="st3" d="M65.5,63.1h2.5v4.3h-2.5V63.1z"/>
<path class="st3" d="M61.4,63.1h2.5v4.3h-2.5V63.1z"/>
<path class="st3" d="M82,69.2h2.5v4.3H82V69.2z"/>
<path class="st3" d="M77.9,69.2h2.5v4.3h-2.5V69.2z"/>
<path class="st3" d="M73.8,69.2h2.5v4.3h-2.5V69.2z"/>
<path class="st3" d="M69.7,69.2h2.5v4.3h-2.5V69.2z"/>
<path class="st3" d="M65.5,69.2h2.5v4.3h-2.5V69.2z"/>
<path class="st3" d="M61.4,69.2h2.5v4.3h-2.5V69.2z"/>
<path class="st3" d="M82,75.3h2.5v4.3H82V75.3z"/>
<path class="st3" d="M77.9,75.3h2.5v4.3h-2.5V75.3z"/>
<path class="st3" d="M73.8,75.3h2.5v4.3h-2.5V75.3z"/>
<path class="st3" d="M69.7,75.3h2.5v4.3h-2.5V75.3z"/>
<path class="st3" d="M65.5,75.3h2.5v4.3h-2.5V75.3z"/>
<path class="st3" d="M61.4,75.3h2.5v4.3h-2.5V75.3z"/>
<path class="st3" d="M83.3,100.9h21V22.9l-10.5-7l-10.5,7V100.9z"/>
<path class="st2" d="M80.1,27.3h27.3v73.6H80.1V27.3z"/>
<path class="st3" d="M102.8,30.2h2.5v4.3h-2.5V30.2z"/>
<path class="st3" d="M98.7,30.2h2.5v4.3h-2.5V30.2z"/>
<path class="st3" d="M94.6,30.2h2.5v4.3h-2.5V30.2z"/>
<path class="st3" d="M90.4,30.2H93v4.3h-2.5V30.2z"/>
<path class="st3" d="M86.3,30.2h2.5v4.3h-2.5V30.2z"/>
<path class="st3" d="M82.2,30.2h2.5v4.3h-2.5V30.2z"/>
<path class="st3" d="M102.8,36.3h2.5v4.3h-2.5V36.3z"/>
<path class="st3" d="M98.7,36.3h2.5v4.3h-2.5V36.3z"/>
<path class="st3" d="M94.6,36.3h2.5v4.3h-2.5V36.3z"/>
<path class="st3" d="M90.4,36.3H93v4.3h-2.5V36.3z"/>
<path class="st3" d="M86.3,36.3h2.5v4.3h-2.5V36.3z"/>
<path class="st3" d="M82.2,36.3h2.5v4.3h-2.5V36.3z"/>
<path class="st3" d="M102.8,42.4h2.5v4.3h-2.5V42.4z"/>
<path class="st3" d="M98.7,42.4h2.5v4.3h-2.5V42.4z"/>
<path class="st3" d="M94.6,42.4h2.5v4.3h-2.5V42.4z"/>
<path class="st3" d="M90.4,42.4H93v4.3h-2.5V42.4z"/>
<path class="st3" d="M86.3,42.4h2.5v4.3h-2.5V42.4z"/>
<path class="st3" d="M82.2,42.4h2.5v4.3h-2.5V42.4z"/>
<path class="st3" d="M102.8,48.6h2.5v4.3h-2.5V48.6z"/>
<path class="st3" d="M98.7,48.6h2.5v4.3h-2.5V48.6z"/>
<path class="st3" d="M94.6,48.6h2.5v4.3h-2.5V48.6z"/>
<path class="st3" d="M90.4,48.6H93v4.3h-2.5V48.6z"/>
<path class="st3" d="M86.3,48.6h2.5v4.3h-2.5V48.6z"/>
<path class="st3" d="M82.2,48.6h2.5v4.3h-2.5V48.6z"/>
<path class="st3" d="M102.8,54.7h2.5v4.3h-2.5V54.7z"/>
<path class="st3" d="M98.7,54.7h2.5v4.3h-2.5V54.7z"/>
<path class="st3" d="M94.6,54.7h2.5v4.3h-2.5V54.7z"/>
<path class="st3" d="M90.4,54.7H93v4.3h-2.5V54.7z"/>
<path class="st3" d="M86.3,54.7h2.5v4.3h-2.5V54.7z"/>
<path class="st3" d="M82.2,54.7h2.5v4.3h-2.5V54.7z"/>
<path class="st3" d="M102.8,60.8h2.5V65h-2.5V60.8z"/>
<path class="st3" d="M98.7,60.8h2.5V65h-2.5V60.8z"/>
<path class="st3" d="M94.6,60.8h2.5V65h-2.5V60.8z"/>
<path class="st3" d="M90.4,60.8H93V65h-2.5V60.8z"/>
<path class="st3" d="M86.3,60.8h2.5V65h-2.5V60.8z"/>
<path class="st3" d="M82.2,60.8h2.5V65h-2.5V60.8z"/>
<path class="st3" d="M102.8,66.9h2.5v4.3h-2.5V66.9z"/>
<path class="st3" d="M98.7,66.9h2.5v4.3h-2.5V66.9z"/>
<path class="st3" d="M94.6,66.9h2.5v4.3h-2.5V66.9z"/>
<path class="st3" d="M90.4,66.9H93v4.3h-2.5V66.9z"/>
<path class="st3" d="M86.3,66.9h2.5v4.3h-2.5V66.9z"/>
<path class="st3" d="M82.2,66.9h2.5v4.3h-2.5V66.9z"/>
<path class="st3" d="M102.8,73h2.5v4.3h-2.5V73z"/>
<path class="st3" d="M98.7,73h2.5v4.3h-2.5V73z"/>
<path class="st3" d="M94.6,73h2.5v4.3h-2.5V73z"/>
<path class="st3" d="M90.4,73H93v4.3h-2.5V73z"/>
<path class="st3" d="M86.3,73h2.5v4.3h-2.5V73z"/>
<path class="st3" d="M82.2,73h2.5v4.3h-2.5V73z"/>
<path class="st3" d="M102.8,79.1h2.5v4.3h-2.5V79.1z"/>
<path class="st3" d="M98.7,79.1h2.5v4.3h-2.5V79.1z"/>
<path class="st3" d="M94.6,79.1h2.5v4.3h-2.5V79.1z"/>
<path class="st3" d="M90.4,79.1H93v4.3h-2.5V79.1z"/>
<path class="st3" d="M86.3,79.1h2.5v4.3h-2.5V79.1z"/>
<path class="st3" d="M82.2,79.1h2.5v4.3h-2.5V79.1z"/>
<path class="st3" d="M102.8,85.2h2.5v4.3h-2.5V85.2z"/>
<path class="st3" d="M98.7,85.2h2.5v4.3h-2.5V85.2z"/>
<path class="st3" d="M94.6,85.2h2.5v4.3h-2.5V85.2z"/>
<path class="st3" d="M90.4,85.2H93v4.3h-2.5V85.2z"/>
<path class="st3" d="M86.3,85.2h2.5v4.3h-2.5V85.2z"/>
<path class="st3" d="M82.2,85.2h2.5v4.3h-2.5V85.2z"/>
<path class="st3" d="M102.8,91.3h2.5v4.3h-2.5V91.3z"/>
<path class="st3" d="M98.7,91.3h2.5v4.3h-2.5V91.3z"/>
<path class="st3" d="M94.6,91.3h2.5v4.3h-2.5V91.3z"/>
<path class="st3" d="M90.4,91.3H93v4.3h-2.5V91.3z"/>
<path class="st3" d="M86.3,91.3h2.5v4.3h-2.5V91.3z"/>
<path class="st3" d="M82.2,91.3h2.5v4.3h-2.5V91.3z"/>
<path class="st3" d="M37.3,75.9H53V17.9l-15.7,8.4V75.9z"/>
<path class="st2" d="M34.9,95.8h20.5V19.9L34.9,30.9V95.8z"/>
<path class="st3" d="M51.3,33.5h2.2v3.8h-2.2V33.5z"/>
<path class="st3" d="M47.7,33.5h2.2v3.8h-2.2V33.5z"/>
<path class="st3" d="M44.1,33.5h2.2v3.8h-2.2V33.5z"/>
<path class="st3" d="M40.4,33.5h2.2v3.8h-2.2V33.5z"/>
<path class="st3" d="M36.8,33.5H39v3.8h-2.2V33.5z"/>
<path class="st3" d="M51.3,38.9h2.2v3.8h-2.2V38.9z"/>
<path class="st3" d="M47.7,38.9h2.2v3.8h-2.2V38.9z"/>
<path class="st3" d="M44.1,38.9h2.2v3.8h-2.2V38.9z"/>
<path class="st3" d="M40.4,38.9h2.2v3.8h-2.2V38.9z"/>
<path class="st3" d="M36.8,38.9H39v3.8h-2.2V38.9z"/>
<path class="st3" d="M51.3,44.3h2.2V48h-2.2V44.3z"/>
<path class="st3" d="M47.7,44.3h2.2V48h-2.2V44.3z"/>
<path class="st3" d="M44.1,44.3h2.2V48h-2.2V44.3z"/>
<path class="st3" d="M40.4,44.3h2.2V48h-2.2V44.3z"/>
<path class="st3" d="M36.8,44.3H39V48h-2.2V44.3z"/>
<path class="st3" d="M51.3,49.7h2.2v3.8h-2.2V49.7z"/>
<path class="st3" d="M47.7,49.7h2.2v3.8h-2.2V49.7z"/>
<path class="st3" d="M44.1,49.7h2.2v3.8h-2.2V49.7z"/>
<path class="st3" d="M40.4,49.7h2.2v3.8h-2.2V49.7z"/>
<path class="st3" d="M36.8,49.7H39v3.8h-2.2V49.7z"/>
<path class="st3" d="M51.3,55h2.2v3.8h-2.2V55z"/>
<path class="st3" d="M47.7,55h2.2v3.8h-2.2V55z"/>
<path class="st3" d="M44.1,55h2.2v3.8h-2.2V55z"/>
<path class="st3" d="M40.4,55h2.2v3.8h-2.2V55z"/>
<path class="st3" d="M36.8,55H39v3.8h-2.2V55z"/>
<path class="st3" d="M51.3,60.4h2.2v3.8h-2.2V60.4z"/>
<path class="st3" d="M47.7,60.4h2.2v3.8h-2.2V60.4z"/>
<path class="st3" d="M44.1,60.4h2.2v3.8h-2.2V60.4z"/>
<path class="st3" d="M40.4,60.4h2.2v3.8h-2.2V60.4z"/>
<path class="st3" d="M36.8,60.4H39v3.8h-2.2V60.4z"/>
<path class="st3" d="M51.3,65.8h2.2v3.8h-2.2V65.8z"/>
<path class="st3" d="M47.7,65.8h2.2v3.8h-2.2V65.8z"/>
<path class="st3" d="M44.1,65.8h2.2v3.8h-2.2V65.8z"/>
<path class="st3" d="M40.4,65.8h2.2v3.8h-2.2V65.8z"/>
<path class="st3" d="M36.8,65.8H39v3.8h-2.2V65.8z"/>
<path class="st3" d="M51.3,71.2h2.2V75h-2.2V71.2z"/>
<path class="st3" d="M47.7,71.2h2.2V75h-2.2V71.2z"/>
<path class="st3" d="M44.1,71.2h2.2V75h-2.2V71.2z"/>
<path class="st3" d="M40.4,71.2h2.2V75h-2.2V71.2z"/>
<path class="st3" d="M36.8,71.2H39V75h-2.2V71.2z"/>
<path class="st3" d="M51.3,76.6h2.2v3.8h-2.2V76.6z"/>
<path class="st3" d="M47.7,76.6h2.2v3.8h-2.2V76.6z"/>
<path class="st3" d="M44.1,76.6h2.2v3.8h-2.2V76.6z"/>
<path class="st3" d="M40.4,76.6h2.2v3.8h-2.2V76.6z"/>
<path class="st3" d="M36.8,76.6H39v3.8h-2.2V76.6z"/>
<path class="st3" d="M51.3,82h2.2v3.8h-2.2V82z"/>
<path class="st3" d="M47.7,82h2.2v3.8h-2.2V82z"/>
<path class="st3" d="M44.1,82h2.2v3.8h-2.2V82z"/>
<path class="st3" d="M40.4,82h2.2v3.8h-2.2V82z"/>
<path class="st3" d="M36.8,82H39v3.8h-2.2V82z"/>
<path class="st5" d="M51.3,87.4h2.2v3.8h-2.2V87.4z"/>
<path class="st5" d="M47.7,87.4h2.2v3.8h-2.2V87.4z"/>
<path class="st5" d="M44.1,87.4h2.2v3.8h-2.2V87.4z"/>
<path class="st5" d="M40.4,87.4h2.2v3.8h-2.2V87.4z"/>
<path class="st5" d="M36.8,87.4H39v3.8h-2.2V87.4z"/>
<path class="st1" d="M26.1,108.1V71.4"/>
<path class="st1" d="M26.1,89.9l4.5-4.5"/>
<path class="st1" d="M26.1,82.2l2.8-2.8"/>
<path class="st2" d="M26.1,58.2v19.9c0,0-4.1-4.5-4.1-9.9S26.1,58.2,26.1,58.2z"/>
<path class="st3" d="M30.2,68.2c0,5.5-4.1,9.9-4.1,9.9V58.2C26.1,58.2,30.2,62.7,30.2,68.2z"/>
<path class="st2" d="M29.6,86.3l14-14c0,0-0.2,6.1-4.1,9.9C35.7,86.1,29.6,86.3,29.6,86.3z"/>
<path class="st3" d="M33.7,76.4c3.9-3.9,9.9-4.1,9.9-4.1l-14,14C29.6,86.3,29.8,80.3,33.7,76.4z"/>
<path class="st1" d="M26.1,86.3l-2.1-2.1"/>
<path class="st2" d="M10.2,70.5l14,14c0,0-6.1-0.2-9.9-4.1C10.5,76.5,10.2,70.5,10.2,70.5z"/>
<path class="st3" d="M20.2,74.6c3.9,3.9,4.1,9.9,4.1,9.9l-14-14C10.2,70.5,16.3,70.7,20.2,74.6z"/>
<path class="st2" d="M128.1,83c13.5,0,24.8,9,28.3,21.4H99.8C103.3,92,114.7,83,128.1,83z"/>
<path class="st2" d="M50.8,83c13.5,0,24.8,9,28.3,21.4H22.5C26,92,37.4,83,50.8,83z"/>
<path class="st2" d="M87.7,73.9c19.2,0,35.4,12.9,40.5,30.5H47.2C52.2,86.7,68.4,73.9,87.7,73.9z"/>
<path class="st4" d="M6.5,113.2h194c3.6,0,6.5-2.1,6.5-4.6c0-2.5-2.9-4.6-6.5-4.6H6.5c-3.6,0-6.5,2.1-6.5,4.6
	C0,111.2,2.9,113.2,6.5,113.2z"/>
<path class="st6" d="M151.5,83.7H46.7v4.6h104.8V83.7z"/>
<path class="st6" d="M50,83h-2v24.2h2V83z"/>
<path class="st6" d="M50.8,108.7h-3.6v-2.4c0-0.6,0.5-1.2,1.2-1.2h1.3c0.6,0,1.2,0.5,1.2,1.2V108.7z"/>
<path class="st6" d="M149,83h-2v24.2h2V83z"/>
<path class="st6" d="M149.8,108.7h-3.6v-2.4c0-0.6,0.5-1.2,1.2-1.2h1.3c0.6,0,1.2,0.5,1.2,1.2V108.7z"/>
<path class="st7" d="M155.5,82h-114v3.8h114V82z"/>
<path class="st7" d="M155.5,69.1h-114v5.5h114V69.1z"/>
<path class="st7" d="M155.5,59.9h-114v5.5h114V59.9z"/>
<path class="st7" d="M155.5,50.7h-114v5.5h114V50.7z"/>
<path class="st8" d="M54.9,71.8c0-0.5,0.4-0.9,0.9-0.9s0.9,0.4,0.9,0.9s-0.4,0.9-0.9,0.9S54.9,72.3,54.9,71.8z"/>
<path class="st8" d="M54.9,62.6c0-0.5,0.4-0.9,0.9-0.9s0.9,0.4,0.9,0.9c0,0.5-0.4,0.9-0.9,0.9S54.9,63.1,54.9,62.6z"/>
<path class="st8" d="M54.9,53.4c0-0.5,0.4-0.9,0.9-0.9s0.9,0.4,0.9,0.9c0,0.5-0.4,0.9-0.9,0.9S54.9,53.9,54.9,53.4z"/>
<path class="st9" d="M125.4,32.2c1.1,0.6,2.5,0.3,3.3-0.6l-4.8-2.4C123.7,30.4,124.3,31.7,125.4,32.2z"/>
<path class="st9" d="M131.7,30.9l-1-0.4l0.2,1L131.7,30.9z"/>
<path class="st9" d="M128.6,34.3c1.3-0.5,1.9-2,1.6-3.6l-5.3,2.2C125.9,34.2,127.4,34.8,128.6,34.3z"/>
<path class="st9" d="M129.9,32.3c0.6,0,1.1-0.5,1.1-1.1c0-0.6-0.5-1.1-1.1-1.1c-0.6,0-1.1,0.5-1.1,1.1
	C128.8,31.8,129.3,32.3,129.9,32.3z"/>
<path class="st9" d="M126.1,32.9l-3.2-0.9v1.7L126.1,32.9z"/>
<path class="st10" d="M130.8,31.2c0.1-0.3-0.1-0.6-0.4-0.7c-0.3-0.1-0.6,0.1-0.7,0.4c-0.1,0.3,0.1,0.6,0.4,0.7
	C130.4,31.6,130.7,31.5,130.8,31.2z"/>
<path class="st11" d="M130.1,30.9c0-0.1,0.1-0.2,0.2-0.2c0.1,0,0.2,0.1,0.2,0.2c0,0.1-0.1,0.2-0.2,0.2
	C130.2,31.1,130.1,31,130.1,30.9z"/>
<path class="st9" d="M127.4,35.8c1.1-0.9,1.4-2.4,0.9-3.6l-4.6,3.7C124.8,36.7,126.3,36.7,127.4,35.8z"/>
<path class="st7" d="M138.6,20.7c-1.5-0.3-3,0.4-3.7,1.7l6.4,1.3C141.2,22.3,140.1,21,138.6,20.7z"/>
<path class="st7" d="M143.7,20.5l-1.1-0.1l0.5,1L143.7,20.5z"/>
<path class="st7" d="M141.6,25.1c1.1-1,1.3-2.8,0.4-4.3l-4.8,4.1C138.7,26,140.5,26.1,141.6,25.1z"/>
<path class="st7" d="M142.4,22.6c0.6-0.2,1-0.9,0.8-1.5c-0.2-0.6-0.9-1-1.5-0.8c-0.6,0.2-1,0.9-0.8,1.5
	C141,22.4,141.7,22.8,142.4,22.6z"/>
<path class="st7" d="M138.6,24.6l-3.7,0.2l0.6,1.8L138.6,24.6z"/>
<path class="st10" d="M142.9,21.1c0-0.3-0.3-0.6-0.7-0.6c-0.3,0-0.6,0.3-0.6,0.7c0,0.3,0.3,0.6,0.7,0.6
	C142.6,21.7,142.9,21.4,142.9,21.1z"/>
<path class="st7" d="M142,21c0-0.1,0-0.2,0.1-0.3s0.2,0,0.3,0.1c0,0.1,0,0.2-0.1,0.3C142.2,21.2,142,21.2,142,21z"/>
<path class="st7" d="M143.6,25.9c-0.4-1.5-1.7-2.5-3.2-2.6l1.6,6.4C143.2,28.9,143.9,27.4,143.6,25.9z"/>
<path class="st10" d="M97.4,112.8c-0.6-0.1-1.2-0.2-1.8-0.2c1.8-12.9-2.9-26.9-13.3-34.8c0.6-0.9,1.2-1.7,1.8-2.5
	C95.4,83.7,99.8,99,97.4,112.8z"/>
<path class="st11" d="M95.9,110.5c0,0-1.5,1.8-1,2.1c0.5,0.3,7.3,4,7.5,3.7c0.7-1-4.5-4.9-5.1-5.1C96.7,111,96.1,110.2,95.9,110.5z"
	/>
<path class="st12" d="M112.3,111.1c-0.6,0.1-1.2,0.1-1.9,0.2c-0.9-13-8.5-25.7-20.3-31.2c0.4-1,0.8-1.9,1.3-2.9
	C104.3,83.1,111.7,97.2,112.3,111.1z"/>
<path class="st11" d="M110.4,108.5c0,0-1.5,1.8-1,2.1c0.5,0.3,7.3,4,7.5,3.7c0.7-1-4.5-4.9-5.1-5.1
	C111.1,109,110.6,108.3,110.4,108.5z"/>
<path class="st10" d="M94.3,74.6c0,0,3.8,2.5,3.9,3.6c0.1,1.1-3.7-0.8-4.9-3.3L94.3,74.6z"/>
<path class="st13" d="M94.7,74.3c-0.4,0.6-0.8,1.2-1.2,1.8c-9.4-6.7-12.9-10.5-11-22.3c0.3-1.8,1-1.8,2.3-1.3c0.2-0.3,0.2-0.3,0,0
	c1.3,0.5,1.3,1.1,1,2.6C84.1,65.5,87.2,67.8,94.7,74.3z"/>
<path class="st11" d="M97.3,93.6c0.7-0.1,1.2-0.1,1.9-0.2c1.5-0.2,3-0.5,4.5-1c0.9-0.3,1.8-0.5,2.6-1c1.2-0.7,2.2-1.6,3.2-2.6
	C96,78.2,90.1,71.8,76.9,74.2c-1,0.4-0.7,0.8-1,0.9c0,0.3,0,0.6,0,0.9c0.3,3.6,1.6,6,5.4,6.6c8.8,1.3,8.5,6.4,10.8,13.7
	C93.6,94.9,95.2,93.9,97.3,93.6z"/>
<path class="st14" d="M85.5,39.9c-0.9-0.1-1.9,0.5-2.2,1.3c-0.3,0.8,0.3,1.7,1.1,2s2.4-0.5,2.8-1.4C87.5,41,86.6,40,85.5,39.9z"/>
<path class="st14" d="M81.1,47c-1.5-1.2-4.3-1.5-6-0.3s-1.6,3.7-0.4,5.3c1.2,1.6,4.7,2.6,7.3,0.9C83.8,51.9,83.1,48.6,81.1,47z"/>
<path class="st14" d="M83.7,44.3c-1.1-0.9-3.1-1.2-4.3-0.3c-1.2,0.9-1.1,2.7-0.2,3.9c0.9,1.2,3.9,1.7,5.1,0.8
	C85.4,47.8,85.1,45.4,83.7,44.3z"/>
<path class="st10" d="M81.8,45.8c1.1,2.4,3.7,3.6,5.2,2.9c1.5-0.7,1.3-3,0.1-5.4c-1.1-2.4-2.9-3.1-4.3-2.4
	C81.3,41.6,80.7,43.4,81.8,45.8z"/>
<path class="st10" d="M81.1,47.1c0.3,0.6,1.1,1,1.6,0.8c0.4-0.2,0.3-0.7,0-1.2c-0.3-0.6-0.8-0.9-1.2-0.7
	C81.1,46.2,80.9,46.6,81.1,47.1z"/>
<path class="st14" d="M80.8,44.5c0,0-0.2-1.8,0.7-2.9c0.9-1.1,3.3-2.1,4.8-0.2c0,0,0.9,1.4-0.9,2.4s-1.9-0.2-2.5,1.1
	c-0.6,1.3-1.7,0.9-1.8,1.2L80.8,44.5z"/>
<path class="st9" d="M85.8,78.9c-2.1,0.1-3.7-0.7-5.5-1.7c-1.4-0.8-3.1-1.2-4.6-1.8c-1.1-6.5,0.4-17,2.9-21.2c2.2-3.6,2.2-3,3-3.4
	c1.1-0.5,2.4-0.3,3.3,0.5c0,0,0,0,0,0c1,1,1.1,3.1,1.2,5.4c0.2,2.2,1,1.8-1,5.7C84.5,64.1,85.9,75.5,85.8,78.9z"/>
<path class="st10" d="M82.7,46.2l2.8,0.2c0,0.4-0.4,4-0.8,5.3c-0.2,0.4-0.9,0.5-1.6,0.1c-0.6-0.3-1-0.8-1-1.2h0
	C82.3,49.9,82.5,47.5,82.7,46.2z"/>
<path class="st10" d="M88.8,76.6c0,0,4.5,1.5,4.9,2.6c0.4,1.1-4,0.2-5.9-2L88.8,76.6z"/>
<path class="st13" d="M89.9,76.8c-0.3,0.7-0.6,1.3-0.9,2c-12.8-7.7-13.1-12.1-9.3-25.7c0.6-2.1,4.2-1.2,2.9,2.2
	C78,67.2,79.6,68.8,89.9,76.8z"/>
<path class="st4" d="M136.6,32.4c-0.1-0.1-0.2-0.1-0.2,0c-0.1,0.1-0.1,0.1-0.1,0.3v5.3c-0.3-0.1-0.6,0-0.9,0.2
	c-0.5,0.4-0.7,1-0.5,1.4c0.2,0.4,0.8,0.5,1.3,0.2c0.4-0.3,0.6-0.8,0.6-1.2c0,0,0-0.1,0-0.1v-5.2c0.4,0.5,1.1,1.4,0.7,2.1
	c-0.1,0.1,0,0.3,0.1,0.4c0.1,0.1,0.2,0.1,0.3-0.1C138.6,34.2,136.7,32.5,136.6,32.4z"/>
<path class="st4" d="M136.8,10.3c-0.1,0-0.1,0-0.2,0c-0.1,0-0.1,0.1-0.1,0.2v3.8c-0.2-0.1-0.5,0-0.7,0.1c-0.4,0.3-0.6,0.7-0.4,1
	c0.2,0.3,0.6,0.4,1,0.1c0.3-0.2,0.5-0.5,0.5-0.8c0,0,0,0,0-0.1v-3.7c0.4,0.4,0.9,1,0.6,1.5c-0.1,0.1,0,0.2,0.1,0.3
	c0.1,0.1,0.2,0,0.3-0.1C138.5,11.5,136.9,10.3,136.8,10.3z"/>
<path class="st4" d="M152.6,21h-3.2h-0.5v1v3.3c-0.3-0.1-0.6,0-0.9,0.1c-0.6,0.3-0.9,0.7-0.7,1.1c0.2,0.4,0.8,0.4,1.4,0.2
	c0.5-0.2,0.8-0.6,0.8-0.9h0V22h3.2v3.3c-0.3,0-0.6,0-0.9,0.1c-0.6,0.3-0.9,0.7-0.7,1.1c0.2,0.4,0.8,0.4,1.4,0.2
	c0.5-0.2,0.8-0.6,0.8-0.9h0V22v-1H152.6z"/>
<path class="st9" d="M18,44c1.5-0.2,2.7-1.4,2.9-2.9c0,0,0.1,0,0.1,0c0.2,1.5,1.4,2.7,2.9,2.9c0,0,0,0.1,0,0.1
	c-1.5,0.2-2.7,1.4-2.9,2.9c0,0-0.1,0-0.1,0C20.8,45.5,19.5,44.3,18,44C18,44,18,44,18,44z"/>
<path class="st7" d="M116,8c1.5-0.2,2.7-1.4,2.9-2.9c0,0,0.1,0,0.1,0c0.2,1.5,1.4,2.7,2.9,2.9c0,0,0,0.1,0,0.1
	c-1.5,0.2-2.7,1.4-2.9,2.9c0,0-0.1,0-0.1,0C118.8,9.5,117.5,8.3,116,8C116,8,116,8,116,8z"/>
<path class="st7" d="M163,98c-1.5-0.2-2.7-1.4-2.9-2.9c0,0-0.1,0-0.1,0c-0.2,1.5-1.4,2.7-2.9,2.9c0,0,0,0.1,0,0.1
	c1.5,0.2,2.7,1.4,2.9,2.9c0,0,0.1,0,0.1,0C160.2,99.5,161.5,98.3,163,98C163,98,163,98,163,98z"/>
<path class="st10" d="M71,95.5c0.7-0.1,1.3-0.7,1.4-1.4c0,0,0.1,0,0.1,0c0.1,0.7,0.7,1.3,1.4,1.4c0,0,0,0.1,0,0.1
	c-0.7,0.1-1.3,0.7-1.4,1.4c0,0-0.1,0-0.1,0C72.3,96.3,71.7,95.7,71,95.5C71,95.5,71,95.5,71,95.5z"/>
<path class="st9" d="M26,52.5c0.7-0.1,1.3-0.7,1.4-1.4c0,0,0.1,0,0.1,0c0.1,0.7,0.7,1.3,1.4,1.4c0,0,0,0.1,0,0.1
	c-0.7,0.1-1.3,0.7-1.4,1.4c0,0-0.1,0-0.1,0C27.3,53.3,26.7,52.7,26,52.5C26,52.5,26,52.5,26,52.5z"/>
<path class="st7" d="M110,14.5c0.7-0.1,1.3-0.7,1.4-1.4c0,0,0.1,0,0.1,0c0.1,0.7,0.7,1.3,1.4,1.4c0,0,0,0.1,0,0.1
	c-0.7,0.1-1.3,0.7-1.4,1.4c0,0-0.1,0-0.1,0C111.3,15.3,110.7,14.7,110,14.5C110,14.5,110,14.5,110,14.5z"/>
<path class="st7" d="M160,66.5c0.7-0.1,1.3-0.7,1.4-1.4c0,0,0.1,0,0.1,0c0.1,0.7,0.7,1.3,1.4,1.4c0,0,0,0.1,0,0.1
	c-0.7,0.1-1.3,0.7-1.4,1.4c0,0-0.1,0-0.1,0C161.3,67.3,160.7,66.7,160,66.5C160,66.5,160,66.5,160,66.5z"/>
<path class="st7" d="M18,99.5c-0.7-0.1-1.3-0.7-1.4-1.4c0,0-0.1,0-0.1,0c-0.1,0.7-0.7,1.3-1.4,1.4c0,0,0,0.1,0,0.1
	c0.7,0.1,1.3,0.7,1.4,1.4c0,0,0.1,0,0.1,0C16.7,100.3,17.3,99.7,18,99.5C18,99.5,18,99.5,18,99.5z"/>
</svg>
